#N canvas 0 22 1280 756 12;
#X obj 98 133 inlet;
#X obj 98 436 mtof;
#X obj 331 649 *~;
#X msg 98 460 1 \$1;
#X obj 98 484 /;
#X obj 98 508 powtodb;
#X obj 98 532 dbtorms;
#X obj 98 590 *~;
#X obj 98 157 unpack f f;
#X obj 244 165 sel 0;
#X obj 276 239 - 1;
#X obj 276 263 / 126;
#X msg 276 287 1 \$1;
#X obj 276 311 -;
#X obj 276 359 + 100;
#X obj 276 383 dbtorms;
#X obj 244 352 t f;
#X obj 331 673 outlet~;
#X obj 116 294 bang;
#X obj 98 357 +;
#X msg 228 451 0.25;
#X obj 276 335 * -12;
#X obj 542 361 *;
#X obj 542 313 t b f;
#X obj 542 289 r \$2-chordDiv-s;
#X obj 542 337 v \$2-ppq;
#X obj 542 385 / 4;
#X obj 542 409 t f f f;
#X obj 246 130 t f b;
#X obj 380 376 t b f;
#X obj 380 400 v \$2-ppq;
#X obj 380 424 *;
#X obj 244 396 pipe;
#X obj 380 356 + 0;
#X obj 472 482 else/adsr~ -log 500 1000 0.5 1000;
#X obj 301 531 osc~;
#X obj 301 555 +~ 1;
#X obj 301 579 /~ 2;
#X obj 243 601 sig~ 2;
#X obj 243 625 pow~;
#X obj 99 647 *~;
#X obj 301 603 *~ -0.25;
#X obj 184 481 phasor~;
#X obj 184 589 cos~;
#X obj 116 318 else/rand.f -0.12 0.12;
#X obj 167 359 sig~;
#X obj 171 426 mtof~;
#X obj 506 587 osc~;
#X obj 506 611 *~ 0.1;
#X obj 506 563 else/rand.i 0 10;
#X obj 98 381 t f f;
#X obj 98 556 clip 0.1 1;
#X obj 301 507 else/rand.i -40 0;
#X obj 222 536 cos~;
#X obj 224 505 *~;
#X obj 222 560 *~;
#X obj 704 555 +~;
#X obj 707 518 *~;
#X obj 257 481 r \$2-chordRatio-s;
#X obj 765 507 r \$2-chordDepth-s;
#X obj 765 531 / 100;
#X msg 765 555 \$1 1000;
#X obj 765 579 line~;
#X obj 755 411 / 100;
#X obj 755 459 line~;
#X obj 755 387 r \$2-chordEnv-s;
#X msg 755 435 \$1 100;
#X obj 704 579 /~;
#X obj 380 332 random 8;
#X connect 0 0 8 0;
#X connect 1 0 3 0;
#X connect 2 0 17 0;
#X connect 3 0 4 0;
#X connect 4 0 5 0;
#X connect 5 0 6 0;
#X connect 6 0 51 0;
#X connect 7 0 40 0;
#X connect 8 0 19 0;
#X connect 8 1 28 0;
#X connect 9 0 16 0;
#X connect 9 1 18 0;
#X connect 9 1 10 0;
#X connect 10 0 11 0;
#X connect 11 0 12 0;
#X connect 12 0 13 0;
#X connect 13 0 21 0;
#X connect 14 0 15 0;
#X connect 15 0 16 0;
#X connect 15 0 20 0;
#X connect 16 0 32 0;
#X connect 18 0 44 0;
#X connect 19 0 50 0;
#X connect 20 0 42 1;
#X connect 21 0 14 0;
#X connect 22 0 26 0;
#X connect 23 0 25 0;
#X connect 23 1 22 1;
#X connect 24 0 23 0;
#X connect 25 0 22 0;
#X connect 26 0 27 0;
#X connect 27 0 34 1;
#X connect 27 1 34 2;
#X connect 27 2 34 4;
#X connect 28 0 9 0;
#X connect 28 1 49 0;
#X connect 28 1 52 0;
#X connect 28 1 68 0;
#X connect 29 0 30 0;
#X connect 29 1 31 1;
#X connect 30 0 31 0;
#X connect 31 0 32 1;
#X connect 32 0 34 0;
#X connect 33 0 29 0;
#X connect 34 0 2 1;
#X connect 34 0 57 0;
#X connect 35 0 36 0;
#X connect 36 0 37 0;
#X connect 37 0 41 0;
#X connect 38 0 39 0;
#X connect 39 0 40 1;
#X connect 40 0 2 0;
#X connect 41 0 39 1;
#X connect 42 0 43 0;
#X connect 42 0 54 0;
#X connect 43 0 7 1;
#X connect 44 0 19 1;
#X connect 45 0 46 0;
#X connect 46 0 42 0;
#X connect 47 0 48 0;
#X connect 48 0 46 0;
#X connect 49 0 47 0;
#X connect 50 0 1 0;
#X connect 50 1 45 0;
#X connect 51 0 7 0;
#X connect 52 0 35 0;
#X connect 53 0 55 0;
#X connect 54 0 53 0;
#X connect 55 0 43 0;
#X connect 56 0 67 0;
#X connect 57 0 56 0;
#X connect 58 0 54 1;
#X connect 58 0 67 1;
#X connect 59 0 60 0;
#X connect 60 0 61 0;
#X connect 61 0 62 0;
#X connect 62 0 56 1;
#X connect 63 0 66 0;
#X connect 64 0 57 1;
#X connect 65 0 63 0;
#X connect 66 0 64 0;
#X connect 67 0 55 1;
#X connect 68 0 33 0;
