#N canvas 0 22 1280 756 12;
#X obj 12 78 * 44;
#X obj 12 102 + 13;
#X obj 12 378 * 44;
#X obj 12 402 + 37;
#X obj 502 28 * 44;
#X obj 502 52 + 2;
#X obj 202 228 * 44;
#X obj 202 252 + 3;
#X obj 12 228 * 44;
#X obj 342 228 * 44;
#X obj 342 252 + 38;
#X text 502 -20 USO QUE AMPARA EL TITULO;
#X text 12 30 FECHA DE REGISTRO;
#X text 202 180 TITULAR;
#X text 12 330 Publico/Privado/Ejido;
#X text 342 180 ACUIFERO;
#X obj 12 252 + 23;
#X text 13 180 VOLUMEN ANUAL EN M3;
#X obj 342 388 * 44;
#X text 342 340 MUNICIPIO;
#X obj 342 412 + 20;
#X msg 12 519 0;
#X obj 12 495 select PUBLICO PRIVADO EJIDAL;
#X msg 78 519 1;
#X msg 145 519 2;
#X obj 502 76 text get \$2-datos;
#X obj 12 126 text get \$2-datos;
#X obj 12 150 send \$2-fecha-\$1;
#X obj 502 357 send \$2-usoAmparado-\$1;
#X obj 12 300 send \$2-volumen-\$1;
#X obj 202 300 send \$2-titular-\$1;
#X obj 342 300 send \$2-acuifero-\$1;
#X obj 342 460 send \$2-municipio-\$1;
#X obj 12 548 send \$2-uso-p-\$1;
#X obj 32 460 send \$2-uso-\$1;
#X obj 12 426 text get \$2-datos;
#X obj 342 436 text get \$2-datos;
#X obj 342 276 text get \$2-datos;
#X obj 202 276 text get \$2-datos;
#X obj 12 276 text get \$2-datos;
#X obj 12 54 r \$2-read-\$1;
#X obj 502 4 r \$2-read-\$1;
#X obj 12 204 r \$2-read-\$1;
#X obj 202 204 r \$2-read-\$1;
#X obj 342 204 r \$2-read-\$1;
#X obj 342 364 r \$2-read-\$1;
#X obj 12 354 r \$2-read-\$1;
#X obj 841 322 i;
#X obj 881 323 + 1;
#X obj 841 499 select 1;
#X obj 841 523 t b b;
#X obj 995 166 log 2;
#X obj 995 214 + 0.5;
#X obj 995 238 i;
#X msg 873 294 0;
#X obj 841 557 i;
#X obj 995 190 * 2;
#X obj 841 396 t f f;
#X obj 931 427 * -1;
#X obj 969 466 +;
#X obj 995 336 t f f;
#X obj 881 557 + 4;
#X obj 955 12 r \$2-volumen-\$1;
#X obj 841 615 send \$2-read-\$1;
#X obj 989 537 s \$2-countdown-\$1;
#X obj 841 470 change -1;
#X obj 1015 312 send \$2-steps-\$1;
#X obj 841 446 >= 10;
#X obj 841 586 + \$1;
#X obj 873 270 r \$2-play-s;
#X obj 955 36 sel 0;
#X obj 851 356 s \$2-clock-\$1;
#X obj 522 105 text search \$2-usoAmparado;
#X obj 522 328 send \$2-usoAmparado-p-\$1;
#X obj 841 92 spigot;
#X obj 898 62 r \$2-track-\$1-s;
#X obj 522 219 + 1;
#X obj 841 220 change -1;
#X obj 841 244 bang;
#X obj 841 196 div 1;
#X obj 841 15 r \$2-clock;
#X obj 873 167 r \$2-div-\$1-s;
#X obj 604 411 r \$2-div-\$1-s;
#X obj 604 435 t b f;
#X obj 604 483 *;
#X obj 604 507 s \$2-ppq-\$1;
#X obj 604 459 v \$2-ppq;
#X obj 624 537 v \$2-ppq-\$1;
#X obj 562 213 text get \$2-usoAmparadoP;
#X obj 562 290 send \$2-usoAmparadoP-\$1;
#X obj 562 184 t f f;
#X obj 562 237 pack s f;
#X obj 645 183 + 1;
#X msg 562 261 symbol \$2\$1;
#X obj 522 163 f;
#X obj 969 490 /;
#X obj 542 129 float;
#X connect 0 0 1 0;
#X connect 1 0 26 0;
#X connect 2 0 3 0;
#X connect 3 0 35 0;
#X connect 4 0 5 0;
#X connect 5 0 25 0;
#X connect 6 0 7 0;
#X connect 7 0 38 0;
#X connect 8 0 16 0;
#X connect 9 0 10 0;
#X connect 10 0 37 0;
#X connect 16 0 39 0;
#X connect 18 0 20 0;
#X connect 20 0 36 0;
#X connect 21 0 33 0;
#X connect 22 0 21 0;
#X connect 22 1 23 0;
#X connect 22 2 24 0;
#X connect 23 0 33 0;
#X connect 24 0 33 0;
#X connect 25 0 28 0;
#X connect 25 0 72 0;
#X connect 26 0 27 0;
#X connect 35 0 22 0;
#X connect 35 0 34 0;
#X connect 36 0 32 0;
#X connect 37 0 31 0;
#X connect 38 0 30 0;
#X connect 39 0 29 0;
#X connect 40 0 0 0;
#X connect 41 0 4 0;
#X connect 42 0 8 0;
#X connect 43 0 6 0;
#X connect 44 0 9 0;
#X connect 45 0 18 0;
#X connect 46 0 2 0;
#X connect 47 0 48 0;
#X connect 47 0 57 0;
#X connect 47 0 71 0;
#X connect 48 0 47 1;
#X connect 49 0 50 0;
#X connect 50 0 55 0;
#X connect 50 1 54 0;
#X connect 51 0 56 0;
#X connect 52 0 53 0;
#X connect 53 0 60 0;
#X connect 53 0 66 0;
#X connect 54 0 47 1;
#X connect 55 0 61 0;
#X connect 55 0 68 0;
#X connect 56 0 52 0;
#X connect 57 0 67 0;
#X connect 57 1 58 0;
#X connect 58 0 59 0;
#X connect 59 0 95 0;
#X connect 60 0 67 1;
#X connect 60 1 59 1;
#X connect 60 1 95 1;
#X connect 61 0 55 1;
#X connect 62 0 70 0;
#X connect 65 0 49 0;
#X connect 67 0 65 0;
#X connect 68 0 63 0;
#X connect 69 0 54 0;
#X connect 70 0 55 0;
#X connect 70 1 51 0;
#X connect 72 0 96 0;
#X connect 74 0 79 0;
#X connect 75 0 74 1;
#X connect 76 0 73 0;
#X connect 77 0 78 0;
#X connect 78 0 47 0;
#X connect 79 0 77 0;
#X connect 80 0 74 0;
#X connect 81 0 79 1;
#X connect 82 0 83 0;
#X connect 83 0 86 0;
#X connect 83 1 84 1;
#X connect 84 0 85 0;
#X connect 86 0 84 0;
#X connect 88 0 91 0;
#X connect 90 0 88 0;
#X connect 90 1 92 0;
#X connect 91 0 93 0;
#X connect 92 0 91 1;
#X connect 93 0 89 0;
#X connect 94 0 76 0;
#X connect 94 0 90 0;
#X connect 95 0 64 0;
#X connect 96 0 94 0;
