#N canvas 153 101 984 590 12;
#X obj 224 53 list prepend 2;
#X obj 441 29 r \$2-municipio-\$1;
#X obj 224 29 r \$2-countdown-\$1;
#X obj 364 77 list prepend 3;
#X obj 224 77 s \$0-display;
#X obj 364 101 s \$0-display;
#X obj 34 349 r \$0-display;
#X obj 34 377 outlet;
#X obj 364 53 list store;
#X obj 364 29 r \$2-bang;
#X obj 34 201 s \$0-display;
#X obj 34 153 list store;
#X obj 34 129 r \$2-bang;
#X obj 224 201 s \$0-display;
#X obj 224 153 list store;
#X obj 224 129 r \$2-bang;
#X obj 454 201 s \$0-display;
#X obj 454 153 list store;
#X obj 454 129 r \$2-bang;
#X obj 664 201 s \$0-display;
#X obj 664 153 list store;
#X obj 664 129 r \$2-bang;
#X obj 34 177 list prepend 4;
#X obj 224 177 list prepend 5;
#X obj 454 177 list prepend 6;
#X obj 664 177 list prepend 7;
#X obj 741 129 r \$2-acuifero-\$1;
#X obj 531 129 r \$2-volumen-\$1;
#X obj 301 129 r \$2-usoAmparado-\$1;
#X obj 111 129 r \$2-fecha-\$1;
#X obj 34 311 s \$0-display;
#X obj 34 263 list store;
#X obj 34 239 r \$2-bang;
#X obj 224 311 s \$0-display;
#X obj 224 263 list store;
#X obj 224 239 r \$2-bang;
#X obj 111 239 r \$2-uso-\$1;
#X obj 301 239 r \$2-titular-\$1;
#X obj 34 287 list prepend 8;
#X obj 224 287 list prepend 9;
#X obj 34 101 s \$0-display;
#X obj 34 29 r \$2-bang;
#X obj 34 77 list prepend 1;
#X obj 111 29 r \$2-steps-\$1;
#X obj 34 53 f;
#X connect 0 0 4 0;
#X connect 1 0 8 1;
#X connect 2 0 0 0;
#X connect 3 0 5 0;
#X connect 6 0 7 0;
#X connect 8 0 3 0;
#X connect 9 0 8 0;
#X connect 11 0 22 0;
#X connect 12 0 11 0;
#X connect 14 0 23 0;
#X connect 15 0 14 0;
#X connect 17 0 24 0;
#X connect 18 0 17 0;
#X connect 20 0 25 0;
#X connect 21 0 20 0;
#X connect 22 0 10 0;
#X connect 23 0 13 0;
#X connect 24 0 16 0;
#X connect 25 0 19 0;
#X connect 26 0 20 1;
#X connect 27 0 17 1;
#X connect 28 0 14 1;
#X connect 29 0 11 1;
#X connect 31 0 38 0;
#X connect 32 0 31 0;
#X connect 34 0 39 0;
#X connect 35 0 34 0;
#X connect 36 0 31 1;
#X connect 37 0 34 1;
#X connect 38 0 30 0;
#X connect 39 0 33 0;
#X connect 41 0 44 0;
#X connect 42 0 40 0;
#X connect 43 0 44 1;
#X connect 44 0 42 0;
