#N canvas 173 143 1024 596 12;
#X obj 263 336 text2d;
#X obj 293 253 list trim;
#X obj 293 205 r \$2-titular-\$1;
#X obj 293 282 loadbang;
#X obj 263 166 translateXYZ;
#X obj 374 75 loadbang;
#X obj 374 99 f \$1;
#X msg 293 307 text \, justify left;
#X obj 290 113 loadbang;
#X obj 53 336 text2d;
#X obj 83 229 list prepend text;
#X obj 83 253 list trim;
#X obj 83 282 loadbang;
#X obj 53 166 translateXYZ;
#X obj 164 75 loadbang;
#X obj 164 99 f \$1;
#X msg 83 307 text \, justify left;
#X obj 80 113 loadbang;
#X obj 83 205 r \$2-fecha-\$1;
#X obj 53 646 text2d;
#X obj 83 563 list trim;
#X obj 83 592 loadbang;
#X obj 53 466 translateXYZ;
#X obj 164 375 loadbang;
#X obj 164 399 f \$1;
#X msg 83 617 text \, justify left;
#X obj 80 413 loadbang;
#X obj 83 515 r \$2-uso-\$1;
#X obj 83 539 list prepend text USO:;
#X obj 283 646 text2d;
#X obj 313 563 list trim;
#X obj 313 592 loadbang;
#X obj 283 466 translateXYZ;
#X obj 394 375 loadbang;
#X obj 394 399 f \$1;
#X msg 313 617 text \, justify left;
#X obj 310 413 loadbang;
#X obj 313 539 list prepend text;
#X obj 313 515 r \$2-usoAmparado-\$1;
#X obj 293 229 list prepend text TITULAR:;
#X obj 513 636 text2d;
#X obj 543 553 list trim;
#X obj 543 582 loadbang;
#X obj 513 452 translateXYZ;
#X obj 624 361 loadbang;
#X obj 624 385 f \$1;
#X msg 543 607 text \, justify left;
#X obj 540 399 loadbang;
#X obj 543 505 r \$2-acuifero-\$1;
#X obj 543 529 list prepend text ACUIFERO:;
#X obj 283 490 colorRGB 0 1 0;
#X obj 53 490 colorRGB 0 1 0;
#X obj 753 676 text2d;
#X obj 783 593 list trim;
#X obj 783 622 loadbang;
#X obj 753 452 translateXYZ;
#X obj 864 361 loadbang;
#X obj 864 385 f \$1;
#X msg 783 647 text \, justify left;
#X obj 780 399 loadbang;
#X obj 753 476 colorRGB 1 0 0;
#X obj 783 505 r \$2-volumen-\$1;
#X obj 513 476 colorRGB 0 1 1;
#X obj 916 302 rectangle;
#X obj 915 222 translateXYZ;
#X obj 1036 259 loadbang;
#X msg 1036 283 0.25;
#X obj 1022 155 loadbang;
#X msg 1022 179 2.5;
#X obj 930 148 translateXYZ;
#X obj 1041 57 loadbang;
#X obj 1041 81 f \$1;
#X obj 957 95 loadbang;
#X obj 1092 159 r \$2-countdown-\$1;
#X obj 1092 183 * 2.5;
#X obj 783 569 list prepend text VOL. ANUAL EN M3:;
#X obj 915 246 colorRGB 0 0.5 1;
#X obj 1091 602 rectangle;
#X obj 1090 522 translateXYZ;
#X obj 1211 559 loadbang;
#X msg 1211 583 0.25;
#X obj 1117 475 loadbang;
#X msg 1117 499 2.5;
#X obj 1085 458 translateXYZ;
#X obj 1196 367 loadbang;
#X obj 1196 391 f \$1;
#X obj 1112 405 loadbang;
#X obj 1090 546 colorRGB 0 0.5 1;
#X obj 1128 644 loadbang;
#X msg 1128 668 draw line;
#X obj 666 157 translateXYZ;
#X obj 757 46 loadbang;
#X obj 757 70 f \$1;
#X obj 693 104 loadbang;
#X obj 672 321 square 0.25;
#X obj 671 265 colorRGB 0 1 1;
#X obj 671 289 alpha 1;
#X obj 784 153 r \$2-env-\$1;
#X obj 784 187 dbtorms;
#X obj 784 241 sqrt;
#X obj 784 211 * 20;
#X obj 394 423 * -1.75;
#X obj 164 423 * -1.75;
#X obj 164 447 + 4.5;
#X obj 394 447 + 4.5;
#X obj 374 147 + 5;
#X obj 164 147 + 5;
#X obj 164 123 * -1.75;
#X obj 374 123 * -1.75;
#X obj 757 94 * -1.75;
#X obj 864 433 + 4;
#X obj 864 409 * -1.75;
#X obj 1196 415 * -1.75;
#X obj 624 433 + 4.5;
#X obj 624 409 * -1.75;
#X obj 1041 105 * -1.75;
#X obj 1041 129 + 3.9;
#X obj 1196 439 + 3.9;
#X obj 757 118 + 3.9;
#X obj 263 74 gemhead 4;
#X obj 53 74 gemhead 4;
#X obj 53 374 gemhead 4;
#X obj 283 374 gemhead 4;
#X obj 513 360 gemhead 4;
#X obj 753 360 gemhead 4;
#X obj 661 71 gemhead 4;
#X obj 925 62 gemhead 4;
#X obj 1080 372 gemhead 4;
#X obj 426 568 loadbang;
#X obj 967 611 loadbang;
#X obj 233 561 loadbang;
#X obj 205 235 loadbang;
#X obj 454 265 loadbang;
#X msg 80 137 -5;
#X msg 290 137 -3;
#X msg 693 128 0;
#X obj 692 558 loadbang;
#X msg 540 423 0;
#X msg 957 119 0.5;
#X msg 1112 429 0.5;
#X msg 233 585 20;
#X msg 426 592 20;
#X msg 692 582 20;
#X msg 967 635 20;
#X msg 454 289 20;
#X msg 205 259 20;
#X msg 80 437 -7;
#X msg 310 437 -3;
#X msg 780 423 -7;
#X connect 1 0 0 0;
#X connect 2 0 39 0;
#X connect 3 0 7 0;
#X connect 4 0 0 0;
#X connect 5 0 6 0;
#X connect 6 0 108 0;
#X connect 7 0 0 0;
#X connect 8 0 134 0;
#X connect 10 0 11 0;
#X connect 11 0 9 0;
#X connect 12 0 16 0;
#X connect 13 0 9 0;
#X connect 14 0 15 0;
#X connect 15 0 107 0;
#X connect 16 0 9 0;
#X connect 17 0 133 0;
#X connect 18 0 10 0;
#X connect 20 0 19 0;
#X connect 21 0 25 0;
#X connect 22 0 51 0;
#X connect 23 0 24 0;
#X connect 24 0 102 0;
#X connect 25 0 19 0;
#X connect 26 0 146 0;
#X connect 27 0 28 0;
#X connect 28 0 20 0;
#X connect 30 0 29 0;
#X connect 31 0 35 0;
#X connect 32 0 50 0;
#X connect 33 0 34 0;
#X connect 34 0 101 0;
#X connect 35 0 29 0;
#X connect 36 0 147 0;
#X connect 37 0 30 0;
#X connect 38 0 37 0;
#X connect 39 0 1 0;
#X connect 41 0 40 0;
#X connect 42 0 46 0;
#X connect 43 0 62 0;
#X connect 44 0 45 0;
#X connect 45 0 114 0;
#X connect 46 0 40 0;
#X connect 47 0 137 0;
#X connect 48 0 49 0;
#X connect 49 0 41 0;
#X connect 50 0 29 0;
#X connect 51 0 19 0;
#X connect 53 0 52 0;
#X connect 54 0 58 0;
#X connect 55 0 60 0;
#X connect 56 0 57 0;
#X connect 57 0 111 0;
#X connect 58 0 52 0;
#X connect 59 0 148 0;
#X connect 60 0 52 0;
#X connect 61 0 75 0;
#X connect 62 0 40 0;
#X connect 64 0 76 0;
#X connect 65 0 66 0;
#X connect 66 0 63 2;
#X connect 67 0 68 0;
#X connect 68 0 64 1;
#X connect 68 0 63 1;
#X connect 69 0 64 0;
#X connect 70 0 71 0;
#X connect 71 0 115 0;
#X connect 72 0 138 0;
#X connect 73 0 74 0;
#X connect 74 0 63 1;
#X connect 74 0 64 1;
#X connect 75 0 53 0;
#X connect 76 0 63 0;
#X connect 78 0 87 0;
#X connect 79 0 80 0;
#X connect 80 0 77 2;
#X connect 81 0 82 0;
#X connect 82 0 78 1;
#X connect 82 0 77 1;
#X connect 83 0 78 0;
#X connect 84 0 85 0;
#X connect 85 0 112 0;
#X connect 86 0 139 0;
#X connect 87 0 77 0;
#X connect 88 0 89 0;
#X connect 89 0 77 0;
#X connect 90 0 95 0;
#X connect 91 0 92 0;
#X connect 92 0 109 0;
#X connect 93 0 135 0;
#X connect 95 0 96 0;
#X connect 96 0 94 0;
#X connect 97 0 98 0;
#X connect 98 0 100 0;
#X connect 99 0 95 4;
#X connect 100 0 99 0;
#X connect 101 0 104 0;
#X connect 102 0 103 0;
#X connect 103 0 22 2;
#X connect 104 0 32 2;
#X connect 105 0 4 2;
#X connect 106 0 13 2;
#X connect 107 0 106 0;
#X connect 108 0 105 0;
#X connect 109 0 118 0;
#X connect 110 0 55 2;
#X connect 111 0 110 0;
#X connect 112 0 117 0;
#X connect 113 0 43 2;
#X connect 114 0 113 0;
#X connect 115 0 116 0;
#X connect 116 0 69 2;
#X connect 117 0 83 2;
#X connect 118 0 90 2;
#X connect 119 0 4 0;
#X connect 120 0 13 0;
#X connect 121 0 22 0;
#X connect 122 0 32 0;
#X connect 123 0 43 0;
#X connect 124 0 55 0;
#X connect 125 0 90 0;
#X connect 126 0 69 0;
#X connect 127 0 83 0;
#X connect 128 0 141 0;
#X connect 129 0 143 0;
#X connect 130 0 140 0;
#X connect 131 0 145 0;
#X connect 132 0 144 0;
#X connect 133 0 13 1;
#X connect 134 0 4 1;
#X connect 135 0 90 1;
#X connect 136 0 142 0;
#X connect 137 0 43 1;
#X connect 138 0 69 1;
#X connect 139 0 83 1;
#X connect 140 0 19 1;
#X connect 141 0 29 1;
#X connect 142 0 40 1;
#X connect 143 0 52 1;
#X connect 144 0 0 1;
#X connect 145 0 9 1;
#X connect 146 0 22 1;
#X connect 147 0 32 1;
#X connect 148 0 55 1;
