#N canvas 0 22 1280 756 12;
#X declare -path ../lib;
#X obj 300 152 %;
#X obj 268 94 t b f;
#X obj 318 282 symboltofloat;
#X obj 300 306 f;
#X msg 300 330 seed \$1;
#X obj 136 182 symboltofloat;
#X obj 98 75 t b f;
#X obj 98 378 f;
#X obj 98 259 else/chance 50;
#X obj 118 206 f;
#X msg 118 230 seed \$1;
#X obj 98 436 mtof;
#X obj 454 590 vline~;
#X obj 221 609 *~;
#X obj 579 445 random 18;
#X obj 579 469 * -1;
#X obj 579 493 + 100;
#X obj 579 517 dbtorms;
#X obj 454 536 pack f f;
#X obj 777 278 symboltofloat;
#X obj 609 297 f;
#X msg 609 321 seed \$1;
#X obj 777 319 + 1;
#X obj 696 338 f;
#X msg 696 362 seed \$1;
#X obj 656 410 * -1;
#X msg 656 434 2 \$1;
#X obj 656 458 pow;
#X obj 454 296 t b b;
#X obj 268 359 else/rand.i 21 70;
#X obj 454 477 *;
#X obj 656 386 random 7;
#X msg 98 460 1 \$1;
#X obj 98 484 /;
#X obj 98 508 powtodb;
#X obj 98 532 dbtorms;
#X obj 98 590 *~;
#X obj 184 571 osc~;
#X obj 98 556 clip 0.25 1;
#X obj 10 22 declare -path ../lib;
#X obj 221 653 outlet~;
#X obj 136 158 r \$1-municipio-\$2;
#X obj 318 258 r \$1-acuifero-\$2;
#X obj 98 283 send \$0-trigger;
#X obj 118 129 r \$0-reset;
#X obj 300 229 r \$0-reset;
#X obj 98 51 r \$1-clock-\$2;
#X obj 318 99 r \$1-steps-\$2;
#X obj 300 200 s \$0-reset;
#X obj 300 176 sel 0;
#X obj 98 354 r \$0-trigger;
#X obj 454 267 r \$0-trigger;
#X obj 609 261 r \$0-reset;
#X obj 696 309 r \$0-reset;
#X obj 454 423 v \$1-ppq;
#X obj 98 402 quantizer \$1;
#X obj 318 123 / 4;
#X msg 454 566 \$2 1 \, 0 \$1 1;
#X obj 777 254 r \$1-titular-\$2;
#X obj 626 132 r \$1-usoAmparado-p-\$2;
#X obj 626 156 == 1;
#X obj 626 180 change;
#X obj 626 209 switch~ 64 1 1;
#X obj 764 542 symboltofloat;
#X obj 746 591 f;
#X msg 746 615 seed \$1;
#X obj 764 518 r \$1-municipio-\$2;
#X obj 746 489 r \$0-reset;
#X obj 391 663 *~;
#X obj 391 722 outlet~;
#X obj 726 460 r \$0-trigger;
#X obj 726 644 random 2;
#X obj 764 566 + 2;
#X obj 193 235 r \$1-prob-\$2-s;
#X text 438 91 Sine clicks;
#X connect 0 0 49 0;
#X connect 1 0 29 0;
#X connect 1 1 0 0;
#X connect 2 0 3 1;
#X connect 3 0 4 0;
#X connect 4 0 29 0;
#X connect 5 0 9 1;
#X connect 6 0 8 0;
#X connect 6 1 1 0;
#X connect 7 0 55 0;
#X connect 8 0 43 0;
#X connect 9 0 10 0;
#X connect 10 0 8 0;
#X connect 11 0 32 0;
#X connect 11 0 37 0;
#X connect 12 0 13 1;
#X connect 13 0 40 0;
#X connect 13 0 68 0;
#X connect 14 0 15 0;
#X connect 15 0 16 0;
#X connect 16 0 17 0;
#X connect 17 0 18 1;
#X connect 18 0 57 0;
#X connect 19 0 20 1;
#X connect 19 0 22 0;
#X connect 20 0 21 0;
#X connect 21 0 14 0;
#X connect 22 0 23 1;
#X connect 23 0 24 0;
#X connect 24 0 31 0;
#X connect 25 0 26 0;
#X connect 26 0 27 0;
#X connect 27 0 30 1;
#X connect 28 0 54 0;
#X connect 28 1 14 0;
#X connect 28 1 31 0;
#X connect 29 0 7 1;
#X connect 30 0 18 0;
#X connect 31 0 25 0;
#X connect 32 0 33 0;
#X connect 33 0 34 0;
#X connect 34 0 35 0;
#X connect 35 0 38 0;
#X connect 36 0 13 0;
#X connect 37 0 36 1;
#X connect 38 0 36 0;
#X connect 41 0 5 0;
#X connect 42 0 2 0;
#X connect 44 0 9 0;
#X connect 45 0 3 0;
#X connect 46 0 6 0;
#X connect 47 0 56 0;
#X connect 49 0 48 0;
#X connect 50 0 7 0;
#X connect 51 0 28 0;
#X connect 52 0 20 0;
#X connect 53 0 23 0;
#X connect 54 0 30 0;
#X connect 55 0 11 0;
#X connect 56 0 0 1;
#X connect 57 0 12 0;
#X connect 58 0 19 0;
#X connect 59 0 60 0;
#X connect 60 0 61 0;
#X connect 61 0 62 0;
#X connect 63 0 72 0;
#X connect 64 0 65 0;
#X connect 65 0 71 0;
#X connect 66 0 63 0;
#X connect 67 0 64 0;
#X connect 68 0 69 0;
#X connect 70 0 71 0;
#X connect 71 0 68 1;
#X connect 72 0 64 1;
#X connect 73 0 8 1;
