#N canvas 0 22 1280 756 12;
#X declare -path ../lib;
#X obj 300 152 %;
#X obj 268 94 t b f;
#X obj 318 282 symboltofloat;
#X obj 300 306 f;
#X msg 300 330 seed \$1;
#X obj 136 182 symboltofloat;
#X obj 98 75 t b f;
#X obj 98 418 f;
#X obj 118 206 f;
#X msg 118 230 seed \$1;
#X obj 584 340 symboltofloat;
#X obj 584 364 + 1;
#X obj 566 393 f;
#X msg 566 417 seed \$1;
#X obj 556 470 * -1;
#X msg 556 494 2 \$1;
#X obj 556 518 pow;
#X obj 454 417 t b b;
#X obj 454 547 *;
#X obj 556 446 random 7;
#X obj 16 -38 declare -path ../lib;
#X obj 238 742 outlet~;
#X obj 136 158 r \$1-municipio-\$2;
#X obj 318 258 r \$1-acuifero-\$2;
#X obj 98 283 send \$0-trigger;
#X obj 118 129 r \$0-reset;
#X obj 300 229 r \$0-reset;
#X obj 98 11 r \$1-clock-\$2;
#X obj 318 39 r \$1-steps-\$2;
#X obj 300 200 s \$0-reset;
#X obj 300 176 sel 0;
#X obj 98 334 r \$0-trigger;
#X obj 566 287 r \$0-reset;
#X obj 98 452 quantizer \$1;
#X obj 584 316 r \$1-titular-\$2;
#X obj 849 103 r \$1-usoAmparado-p-\$2;
#X obj 849 151 change;
#X obj 849 127 == 2;
#X obj 764 542 symboltofloat;
#X obj 746 591 f;
#X msg 746 615 seed \$1;
#X obj 764 518 r \$1-municipio-\$2;
#X obj 746 489 r \$0-reset;
#X obj 708 712 *~;
#X obj 708 741 outlet~;
#X obj 726 460 r \$0-trigger;
#X obj 726 644 random 2;
#X obj 849 256 switch~ 64 1 1;
#X obj 764 566 + 2;
#X obj 238 621 makenote;
#X obj 98 358 t b b;
#X obj 264 387 t b b;
#X obj 292 466 symboltofloat;
#X obj 274 519 f;
#X msg 274 543 seed \$1;
#X obj 274 413 r \$0-reset;
#X obj 292 442 r \$1-titular-\$2;
#X obj 292 490 + 0;
#X obj 238 645 poly 6 1;
#X obj 238 669 pack f f f;
#X obj 268 359 else/rand.i 21 50;
#X obj 238 693 clone -s 1 i2sines 6 \$1 \$2;
#X obj 506 54 symboltofloat;
#X obj 488 103 f;
#X msg 488 127 seed \$1;
#X obj 469 -12 r \$0-reset;
#X obj 456 50 t b b;
#X obj 456 240 * 5;
#X obj 682 70 symboltofloat;
#X obj 664 119 f;
#X msg 664 143 seed \$1;
#X obj 632 66 t b b;
#X obj 469 12 t b b;
#X obj 496 305 +;
#X obj 456 264 t f f;
#X obj 506 30 r \$1-acuifero-\$2;
#X obj 682 46 r \$1-acuifero-\$2;
#X obj 506 78 + 1;
#X obj 682 94 + 2;
#X obj 632 172 else/rand.i 1 8;
#X obj 456 156 else/rand.i 2 8;
#X obj 264 572 random 127;
#X obj 849 175 sel 1 0;
#X obj 223 -21 r \$1-usoAmparado-p-\$2;
#X obj 223 27 change;
#X obj 223 3 == 2;
#X obj 98 46 spigot;
#X obj 888 203 delay 1000;
#X msg 888 227 0;
#X msg 849 227 1;
#X obj 454 483 v \$1-ppq-\$2;
#X obj 466 187 r \$1-scaleLength;
#X obj 466 211 t b f;
#X obj 632 254 * 5;
#X obj 642 201 r \$1-scaleLength;
#X obj 642 225 t b f;
#X obj 98 259 else/chance 100;
#X obj 238 717 *~ 1;
#X obj 318 123 / 3;
#X obj 336 94 r \$1-repeats-\$2;
#X obj 264 596 + 1;
#X obj 193 230 r \$1-prob-\$2-s;
#X text 711 388 Small additive;
#X connect 0 0 30 0;
#X connect 1 0 60 0;
#X connect 1 1 0 0;
#X connect 2 0 3 1;
#X connect 3 0 4 0;
#X connect 4 0 60 0;
#X connect 5 0 8 1;
#X connect 6 0 96 0;
#X connect 6 1 1 0;
#X connect 7 0 33 0;
#X connect 8 0 9 0;
#X connect 9 0 96 0;
#X connect 10 0 11 0;
#X connect 11 0 12 1;
#X connect 12 0 13 0;
#X connect 13 0 19 0;
#X connect 14 0 15 0;
#X connect 15 0 16 0;
#X connect 16 0 18 1;
#X connect 17 0 90 0;
#X connect 17 1 19 0;
#X connect 18 0 49 2;
#X connect 19 0 14 0;
#X connect 22 0 5 0;
#X connect 23 0 2 0;
#X connect 25 0 8 0;
#X connect 26 0 3 0;
#X connect 27 0 86 0;
#X connect 28 0 98 0;
#X connect 30 0 29 0;
#X connect 31 0 50 0;
#X connect 32 0 12 0;
#X connect 33 0 49 0;
#X connect 34 0 10 0;
#X connect 35 0 37 0;
#X connect 36 0 82 0;
#X connect 37 0 36 0;
#X connect 38 0 48 0;
#X connect 39 0 40 0;
#X connect 40 0 46 0;
#X connect 41 0 38 0;
#X connect 42 0 39 0;
#X connect 43 0 44 0;
#X connect 45 0 46 0;
#X connect 46 0 43 1;
#X connect 48 0 39 1;
#X connect 49 0 58 0;
#X connect 49 1 58 1;
#X connect 50 0 7 0;
#X connect 50 1 51 0;
#X connect 51 0 81 0;
#X connect 51 1 17 0;
#X connect 52 0 57 0;
#X connect 53 0 54 0;
#X connect 54 0 81 0;
#X connect 55 0 53 0;
#X connect 56 0 52 0;
#X connect 57 0 53 1;
#X connect 58 0 59 0;
#X connect 58 1 59 1;
#X connect 58 2 59 2;
#X connect 59 0 61 0;
#X connect 60 0 7 1;
#X connect 61 0 97 0;
#X connect 62 0 77 0;
#X connect 63 0 64 0;
#X connect 64 0 80 0;
#X connect 65 0 72 0;
#X connect 66 0 80 0;
#X connect 66 1 63 0;
#X connect 67 0 74 0;
#X connect 68 0 78 0;
#X connect 69 0 70 0;
#X connect 70 0 79 0;
#X connect 71 0 79 0;
#X connect 71 1 69 0;
#X connect 72 0 66 0;
#X connect 72 1 71 0;
#X connect 73 0 60 2;
#X connect 74 0 60 1;
#X connect 74 1 73 0;
#X connect 75 0 62 0;
#X connect 76 0 68 0;
#X connect 77 0 63 1;
#X connect 78 0 69 1;
#X connect 79 0 93 0;
#X connect 80 0 67 0;
#X connect 81 0 100 0;
#X connect 82 0 89 0;
#X connect 82 1 87 0;
#X connect 83 0 85 0;
#X connect 84 0 86 1;
#X connect 85 0 84 0;
#X connect 86 0 6 0;
#X connect 87 0 88 0;
#X connect 88 0 47 0;
#X connect 89 0 47 0;
#X connect 90 0 18 0;
#X connect 91 0 92 0;
#X connect 92 0 67 0;
#X connect 92 1 67 1;
#X connect 93 0 73 1;
#X connect 94 0 95 0;
#X connect 95 0 93 0;
#X connect 95 1 93 1;
#X connect 96 0 24 0;
#X connect 97 0 21 0;
#X connect 97 0 43 0;
#X connect 98 0 0 1;
#X connect 99 0 98 1;
#X connect 100 0 49 1;
#X connect 101 0 96 1;
