#N canvas 307 51 973 702 12;
#X obj 98 133 inlet;
#X obj 98 436 mtof;
#X obj 221 609 *~;
#X msg 98 460 1 \$1;
#X obj 98 484 /;
#X obj 98 508 powtodb;
#X obj 98 532 dbtorms;
#X obj 98 590 *~;
#X obj 184 571 osc~;
#X obj 472 482 else/adsr~ -log 1 1000 0 1000;
#X obj 98 157 unpack f f;
#X obj 244 215 sel 0;
#X obj 276 239 - 1;
#X obj 276 263 / 126;
#X msg 276 287 1 \$1;
#X obj 276 311 -;
#X obj 276 359 + 100;
#X obj 276 383 dbtorms;
#X obj 244 412 t f;
#X obj 221 633 outlet~;
#X obj 522 339 / 127;
#X msg 522 387 2 \$1;
#X obj 522 411 pow;
#X obj 522 363 * 10;
#X obj 572 368 / 127;
#X msg 572 416 2 \$1;
#X obj 572 440 pow;
#X obj 572 392 * 10;
#X obj 622 429 / 127;
#X obj 622 453 pow 2;
#X obj 758 391 / 127;
#X msg 758 439 2 \$1;
#X obj 758 463 pow;
#X obj 758 415 * 10;
#X obj 116 354 bang;
#X obj 116 378 else/rand.f -0.1 0.1;
#X obj 98 407 +;
#X obj 98 556 clip 0.25 1;
#X msg 228 511 0.25;
#X obj 276 335 * -12;
#X obj 522 315 r \$2-attack-1-s;
#X obj 572 344 r \$2-decay-1-s;
#X obj 622 405 r \$2-sustain-1-s;
#X obj 758 362 r \$2-release-1-s;
#X obj 401 135 > 0;
#X obj 401 159 sel 0;
#X obj 401 243 delay;
#X obj 447 179 t b b;
#X msg 495 212 1;
#X msg 447 203 stop;
#X msg 401 267 0;
#X obj 401 291 switch~ 64 1 1;
#X obj 758 487 * 2;
#X connect 0 0 10 0;
#X connect 1 0 3 0;
#X connect 1 0 8 0;
#X connect 2 0 19 0;
#X connect 3 0 4 0;
#X connect 4 0 5 0;
#X connect 5 0 6 0;
#X connect 6 0 37 0;
#X connect 7 0 2 0;
#X connect 8 0 7 1;
#X connect 9 0 2 1;
#X connect 10 0 36 0;
#X connect 10 1 11 0;
#X connect 10 1 44 0;
#X connect 11 0 18 0;
#X connect 11 1 12 0;
#X connect 11 1 34 0;
#X connect 12 0 13 0;
#X connect 13 0 14 0;
#X connect 14 0 15 0;
#X connect 15 0 39 0;
#X connect 16 0 17 0;
#X connect 17 0 18 0;
#X connect 17 0 38 0;
#X connect 18 0 9 0;
#X connect 20 0 23 0;
#X connect 21 0 22 0;
#X connect 22 0 9 1;
#X connect 23 0 21 0;
#X connect 24 0 27 0;
#X connect 25 0 26 0;
#X connect 26 0 9 2;
#X connect 27 0 25 0;
#X connect 28 0 29 0;
#X connect 29 0 9 3;
#X connect 30 0 33 0;
#X connect 31 0 32 0;
#X connect 32 0 9 4;
#X connect 32 0 52 0;
#X connect 33 0 31 0;
#X connect 34 0 35 0;
#X connect 35 0 36 1;
#X connect 36 0 1 0;
#X connect 37 0 7 0;
#X connect 38 0 8 1;
#X connect 39 0 16 0;
#X connect 40 0 20 0;
#X connect 41 0 24 0;
#X connect 42 0 28 0;
#X connect 43 0 30 0;
#X connect 44 0 45 0;
#X connect 45 0 46 0;
#X connect 45 1 47 0;
#X connect 46 0 50 0;
#X connect 47 0 49 0;
#X connect 47 1 48 0;
#X connect 48 0 51 0;
#X connect 49 0 46 0;
#X connect 50 0 51 0;
#X connect 52 0 46 1;
