#N canvas 0 22 1280 756 12;
#X declare -path ../lib;
#X obj 221 673 outlet~;
#N canvas 0 22 1280 756 what 0;
#X obj 125 81 symboltofloat;
#X obj 125 57 r \$1-municipio-\$2;
#X msg 490 246 seed \$1;
#X obj 407 215 t b f;
#X obj 407 343 + 1;
#X obj 407 239 t b b;
#X obj 407 367 until;
#X obj 407 391 i;
#X obj 447 391 + 1;
#X msg 509 343 0;
#X obj 457 473 + 1;
#X obj 457 497 +;
#X obj 497 497 i;
#X obj 636 316 array define \$0-harmonics;
#X msg 457 575 1 \$1;
#X obj 457 599 /;
#X obj 457 551 t f f;
#X msg 564 433 const 0;
#X obj 564 457 s \$0-harmonics;
#X obj 404 655 tabwrite \$0-harmonics;
#X obj 407 415 sel 0;
#X msg 407 439 1 0;
#X obj 469 417 bang;
#X obj 125 105 t b f;
#X obj 165 167 array get \$0-harmonics;
#X obj 165 191 list prepend sinesum 1024;
#X obj 125 257 s \$0-osc;
#X obj 597 181 table \$0-osc 1027;
#X obj 165 215 list trim;
#X obj 457 449 random 4;
#X obj 407 319 random 32;
#X obj 125 129 t b b;
#X msg 45 184 normalize 1;
#X obj 598 542 random 20;
#X obj 598 566 + 100;
#X obj 598 590 dbtorms;
#X obj 457 623 *;
#X obj 457 521 t f b;
#X connect 0 0 23 0;
#X connect 1 0 0 0;
#X connect 2 0 30 0;
#X connect 3 0 5 0;
#X connect 3 1 2 0;
#X connect 4 0 6 0;
#X connect 5 0 30 0;
#X connect 5 1 9 0;
#X connect 5 1 17 0;
#X connect 6 0 7 0;
#X connect 7 0 8 0;
#X connect 7 0 20 0;
#X connect 8 0 7 1;
#X connect 9 0 7 1;
#X connect 9 0 12 0;
#X connect 10 0 11 0;
#X connect 11 0 12 0;
#X connect 11 0 37 0;
#X connect 12 0 11 1;
#X connect 14 0 15 0;
#X connect 15 0 36 0;
#X connect 16 0 14 0;
#X connect 16 1 19 1;
#X connect 17 0 18 0;
#X connect 20 0 21 0;
#X connect 20 1 22 0;
#X connect 21 0 19 0;
#X connect 22 0 29 0;
#X connect 23 0 31 0;
#X connect 23 1 3 0;
#X connect 24 0 25 0;
#X connect 25 0 28 0;
#X connect 28 0 26 0;
#X connect 29 0 10 0;
#X connect 30 0 4 0;
#X connect 31 0 32 0;
#X connect 31 1 24 0;
#X connect 32 0 26 0;
#X connect 33 0 34 0;
#X connect 34 0 35 0;
#X connect 35 0 36 1;
#X connect 36 0 19 0;
#X connect 37 0 16 0;
#X connect 37 1 33 0;
#X restore 577 503 pd what;
#X obj 764 542 symboltofloat;
#X obj 746 591 f;
#X msg 746 615 seed \$1;
#X obj 764 518 r \$1-municipio-\$2;
#X obj 746 489 r \$0-reset;
#X obj 391 663 *~;
#X obj 391 722 outlet~;
#X obj 726 460 r \$0-trigger;
#X obj 726 644 random 2;
#X obj 764 566 + 2;
#X obj 300 -148 %;
#X obj 268 -206 t b f;
#X obj 318 -18 symboltofloat;
#X obj 300 6 f;
#X msg 300 30 seed \$1;
#X obj 136 -118 symboltofloat;
#X obj 98 -225 t b f;
#X obj 98 118 f;
#X obj 118 -94 f;
#X msg 118 -70 seed \$1;
#X obj 584 40 symboltofloat;
#X obj 584 64 + 1;
#X obj 566 93 f;
#X msg 566 117 seed \$1;
#X obj 556 170 * -1;
#X msg 556 194 2 \$1;
#X obj 556 218 pow;
#X obj 454 117 t b b;
#X obj 454 247 *;
#X obj 16 -338 declare -path ../lib;
#X obj 136 -142 r \$1-municipio-\$2;
#X obj 318 -42 r \$1-acuifero-\$2;
#X obj 98 -17 send \$0-trigger;
#X obj 118 -171 r \$0-reset;
#X obj 300 -71 r \$0-reset;
#X obj 98 -289 r \$1-clock-\$2;
#X obj 318 -201 r \$1-steps-\$2;
#X obj 300 -100 s \$0-reset;
#X obj 300 -124 sel 0;
#X obj 98 34 r \$0-trigger;
#X obj 566 -13 r \$0-reset;
#X obj 98 152 quantizer \$1;
#X obj 318 -177 / 4;
#X obj 584 16 r \$1-titular-\$2;
#X obj 849 -197 r \$1-usoAmparado-p-\$2;
#X obj 849 -149 change;
#X obj 849 -44 switch~ 64 1 1;
#X obj 238 345 makenote;
#X obj 98 58 t b b;
#X obj 264 87 t b b;
#X obj 292 176 symboltofloat;
#X obj 274 229 f;
#X msg 274 253 seed \$1;
#X obj 274 123 r \$0-reset;
#X obj 292 152 r \$1-titular-\$2;
#X obj 292 200 + 0;
#X obj 238 369 poly 6 1;
#X obj 238 393 pack f f f;
#X obj 268 59 else/rand.i 21 50;
#X obj 506 -246 symboltofloat;
#X obj 488 -197 f;
#X msg 488 -173 seed \$1;
#X obj 469 -312 r \$0-reset;
#X obj 456 -250 t b b;
#X obj 456 -50 * 5;
#X obj 682 -230 symboltofloat;
#X obj 664 -181 f;
#X msg 664 -157 seed \$1;
#X obj 632 -234 t b b;
#X obj 469 -288 t b b;
#X obj 496 15 +;
#X obj 456 -26 t f f;
#X obj 506 -270 r \$1-acuifero-\$2;
#X obj 682 -254 r \$1-acuifero-\$2;
#X obj 632 -128 else/rand.i 1 8;
#X obj 264 282 random 127;
#X obj 849 -125 sel 1 0;
#X obj 223 -321 r \$1-usoAmparado-p-\$2;
#X obj 223 -273 change;
#X obj 98 -254 spigot;
#X obj 888 -97 delay 1000;
#X msg 888 -73 0;
#X msg 849 -73 1;
#X obj 452 154 v \$1-ppq-\$2;
#X obj 466 -113 r \$1-scaleLength;
#X obj 466 -79 t b f;
#X obj 632 -46 * 5;
#X obj 642 -99 r \$1-scaleLength;
#X obj 642 -75 t b f;
#X obj 238 422 clone -s 1 i5lpgs 6 \$1 \$2 \$0;
#X msg 454 271 all \$1;
#X obj 223 -297 == 5;
#X obj 849 -173 == 5;
#X obj 98 -41 else/chance 80;
#X obj 264 306 + 1;
#X obj 665 119 / 127;
#X obj 665 167 + 1;
#X msg 665 191 2 \$1;
#X obj 665 215 pow;
#X obj 665 143 * 2;
#X obj 556 146 random 3;
#X obj 238 456 *~ 0.33;
#X obj 665 95 r \$1-lpgRel-s;
#X obj 454 207 *;
#X obj 452 178 * 2;
#X obj 456 -144 else/rand.i 2 8;
#X obj 506 -222 + 4;
#X obj 682 -206 + 7;
#X obj 193 -80 r \$1-prob-\$2-s;
#X text 524 385 Aditiva con LPG;
#X connect 2 0 11 0;
#X connect 3 0 4 0;
#X connect 4 0 10 0;
#X connect 5 0 2 0;
#X connect 6 0 3 0;
#X connect 7 0 8 0;
#X connect 9 0 10 0;
#X connect 10 0 7 1;
#X connect 11 0 3 1;
#X connect 12 0 40 0;
#X connect 13 0 60 0;
#X connect 13 1 12 0;
#X connect 14 0 15 1;
#X connect 15 0 16 0;
#X connect 16 0 60 0;
#X connect 17 0 20 1;
#X connect 18 0 95 0;
#X connect 18 1 13 0;
#X connect 19 0 43 0;
#X connect 20 0 21 0;
#X connect 21 0 95 0;
#X connect 22 0 23 0;
#X connect 23 0 24 1;
#X connect 24 0 25 0;
#X connect 25 0 102 0;
#X connect 26 0 27 0;
#X connect 27 0 28 0;
#X connect 28 0 30 1;
#X connect 29 0 85 0;
#X connect 29 1 102 0;
#X connect 30 0 49 2;
#X connect 30 0 92 0;
#X connect 32 0 17 0;
#X connect 33 0 14 0;
#X connect 35 0 20 0;
#X connect 36 0 15 0;
#X connect 37 0 81 0;
#X connect 38 0 44 0;
#X connect 40 0 39 0;
#X connect 41 0 50 0;
#X connect 42 0 24 0;
#X connect 43 0 49 0;
#X connect 44 0 12 1;
#X connect 45 0 22 0;
#X connect 46 0 94 0;
#X connect 47 0 78 0;
#X connect 49 0 58 0;
#X connect 49 1 58 1;
#X connect 50 0 19 0;
#X connect 50 1 51 0;
#X connect 51 0 77 0;
#X connect 51 1 29 0;
#X connect 52 0 57 0;
#X connect 53 0 54 0;
#X connect 54 0 77 0;
#X connect 55 0 53 0;
#X connect 56 0 52 0;
#X connect 57 0 53 1;
#X connect 58 0 59 0;
#X connect 58 1 59 1;
#X connect 58 2 59 2;
#X connect 59 0 91 0;
#X connect 60 0 19 1;
#X connect 61 0 108 0;
#X connect 62 0 63 0;
#X connect 63 0 107 0;
#X connect 64 0 71 0;
#X connect 65 0 107 0;
#X connect 65 1 62 0;
#X connect 66 0 73 0;
#X connect 67 0 109 0;
#X connect 68 0 69 0;
#X connect 69 0 76 0;
#X connect 70 0 76 0;
#X connect 70 1 68 0;
#X connect 71 0 65 0;
#X connect 71 1 70 0;
#X connect 72 0 60 2;
#X connect 73 0 60 1;
#X connect 73 1 72 0;
#X connect 74 0 61 0;
#X connect 75 0 67 0;
#X connect 76 0 88 0;
#X connect 77 0 96 0;
#X connect 78 0 84 0;
#X connect 78 1 82 0;
#X connect 79 0 93 0;
#X connect 80 0 81 1;
#X connect 81 0 18 0;
#X connect 82 0 83 0;
#X connect 83 0 48 0;
#X connect 84 0 48 0;
#X connect 85 0 106 0;
#X connect 86 0 87 0;
#X connect 87 0 66 0;
#X connect 87 1 66 1;
#X connect 88 0 72 1;
#X connect 89 0 90 0;
#X connect 90 0 88 0;
#X connect 90 1 88 1;
#X connect 91 0 103 0;
#X connect 92 0 91 1;
#X connect 93 0 80 0;
#X connect 94 0 47 0;
#X connect 95 0 34 0;
#X connect 96 0 49 1;
#X connect 97 0 101 0;
#X connect 98 0 99 0;
#X connect 99 0 100 0;
#X connect 100 0 105 1;
#X connect 101 0 98 0;
#X connect 102 0 26 0;
#X connect 103 0 0 0;
#X connect 103 0 7 0;
#X connect 104 0 97 0;
#X connect 105 0 30 0;
#X connect 106 0 105 0;
#X connect 107 0 66 0;
#X connect 108 0 62 1;
#X connect 109 0 68 1;
#X connect 110 0 95 1;
