#N canvas 0 22 1280 756 12;
#X obj 396 592 outlet~;
#X obj 396 563 *~;
#X obj 414 394 vline~;
#X obj 102 525 else/lowpass~ 1000 0.4;
#X obj 414 418 *~;
#X obj 235 479 mtof~;
#X obj 135 34 inlet;
#X obj 135 58 unpack f f;
#X obj 281 76 sel 0;
#X obj 313 100 - 1;
#X obj 313 124 / 126;
#X msg 313 148 1 \$1;
#X obj 313 172 -;
#X obj 313 220 + 100;
#X obj 313 244 dbtorms;
#X obj 153 255 bang;
#X obj 153 279 else/rand.f -0.1 0.1;
#X obj 135 308 +;
#X obj 313 268 sqrt;
#X obj 369 83 inlet;
#X obj 102 470 tabosc4~ \$4-osc;
#X obj 135 332 mtof;
#X obj 209 405 + 103;
#X obj 209 381 * 12;
#X obj 235 455 *~ 127;
#X obj 313 332 pack f f f;
#X obj 641 247 r \$2-lpgAttack-s;
#X obj 641 271 / 127;
#X msg 641 319 2 \$1;
#X obj 641 343 pow;
#X obj 641 295 * 6;
#X obj 244 35 t f f;
#X obj 401 135 > 0;
#X obj 401 159 sel 0;
#X obj 401 243 delay;
#X obj 447 179 t b b;
#X msg 495 212 1;
#X msg 447 203 stop;
#X msg 401 267 0;
#X obj 401 291 switch~ 64 1 1;
#X msg 313 356 \$1 \$3 \, 0 \$2 \$3;
#X obj 313 196 * -12;
#X connect 1 0 0 0;
#X connect 2 0 4 0;
#X connect 2 0 4 1;
#X connect 3 0 1 0;
#X connect 4 0 1 1;
#X connect 4 0 24 0;
#X connect 5 0 3 1;
#X connect 6 0 7 0;
#X connect 7 0 17 0;
#X connect 7 1 31 0;
#X connect 8 1 9 0;
#X connect 8 1 15 0;
#X connect 9 0 10 0;
#X connect 10 0 11 0;
#X connect 10 0 23 0;
#X connect 11 0 12 0;
#X connect 12 0 41 0;
#X connect 13 0 14 0;
#X connect 14 0 18 0;
#X connect 15 0 16 0;
#X connect 16 0 17 1;
#X connect 17 0 21 0;
#X connect 18 0 25 0;
#X connect 19 0 25 1;
#X connect 19 0 34 1;
#X connect 20 0 3 0;
#X connect 21 0 20 0;
#X connect 23 0 22 0;
#X connect 24 0 5 0;
#X connect 25 0 40 0;
#X connect 26 0 27 0;
#X connect 27 0 30 0;
#X connect 28 0 29 0;
#X connect 29 0 25 2;
#X connect 30 0 28 0;
#X connect 31 0 8 0;
#X connect 31 1 32 0;
#X connect 32 0 33 0;
#X connect 33 0 34 0;
#X connect 33 1 35 0;
#X connect 34 0 38 0;
#X connect 35 0 37 0;
#X connect 35 1 36 0;
#X connect 36 0 39 0;
#X connect 37 0 34 0;
#X connect 38 0 39 0;
#X connect 40 0 2 0;
#X connect 41 0 13 0;
