#N canvas 0 22 1280 756 12;
#X declare -path ../lib;
#X obj 300 152 %;
#X obj 268 94 t b f;
#X obj 318 282 symboltofloat;
#X obj 300 306 f;
#X msg 300 330 seed \$1;
#X obj 136 182 symboltofloat;
#X obj 98 75 t b f;
#X obj 98 378 f;
#X obj 118 206 f;
#X msg 118 230 seed \$1;
#X obj 52 -4 declare -path ../lib;
#X obj 136 158 r \$1-municipio-\$2;
#X obj 318 258 r \$1-acuifero-\$2;
#X obj 98 283 send \$0-trigger;
#X obj 118 129 r \$0-reset;
#X obj 300 229 r \$0-reset;
#X obj 98 21 r \$1-clock-\$2;
#X obj 318 99 r \$1-steps-\$2;
#X obj 300 200 s \$0-reset;
#X obj 300 176 sel 0;
#X obj 98 324 r \$0-trigger;
#X obj 318 123 / 4;
#X obj 604 653 *~;
#X obj 604 712 outlet~;
#X obj 939 450 r \$0-trigger;
#N canvas 818 111 450 597 kick 0;
#X obj 264 89 inlet;
#X obj 264 113 / 127;
#X obj 83 62 inlet;
#X obj 83 86 f;
#X obj 174 23 inlet;
#X obj 174 47 / 127;
#X msg 174 143 2 \$1;
#X obj 174 167 pow;
#X obj 174 71 sqrt;
#X obj 174 119 + 4;
#X obj 186 216 f;
#X msg 83 109 1 \, 0 \$1;
#X obj 83 133 line~;
#X obj 29 157 sig~ 1;
#X obj 29 181 -~;
#X obj 29 253 -~ 0.25;
#X obj 29 277 cos~;
#X obj 29 311 *~;
#X obj 83 157 sqrt~;
#X obj 29 229 *~ 11;
#X obj 29 439 outlet~;
#X obj 29 205 sqrt~;
#X obj 264 137 * 20;
#X obj 29 335 *~;
#X obj 81 298 r \$0-vel;
#X obj 29 409 hip~ 50;
#X obj 29 385 lop~ 1000;
#X obj 29 359 *~ 0.5;
#X obj 264 161 + 4;
#X obj 174 95 * 6;
#X obj 234 41 r \$1-release-\$2;
#X connect 0 0 1 0;
#X connect 1 0 22 0;
#X connect 2 0 3 0;
#X connect 2 0 10 0;
#X connect 3 0 11 0;
#X connect 4 0 5 0;
#X connect 5 0 8 0;
#X connect 6 0 7 0;
#X connect 7 0 3 1;
#X connect 8 0 29 0;
#X connect 9 0 6 0;
#X connect 10 0 19 1;
#X connect 11 0 12 0;
#X connect 12 0 18 0;
#X connect 12 0 14 1;
#X connect 13 0 14 0;
#X connect 14 0 21 0;
#X connect 15 0 16 0;
#X connect 16 0 17 0;
#X connect 17 0 23 0;
#X connect 18 0 17 1;
#X connect 19 0 15 0;
#X connect 21 0 19 0;
#X connect 22 0 28 0;
#X connect 23 0 27 0;
#X connect 24 0 23 1;
#X connect 25 0 20 0;
#X connect 26 0 25 0;
#X connect 27 0 26 0;
#X connect 28 0 10 1;
#X connect 29 0 9 0;
#X restore 103 531 pd kick;
#N canvas 452 109 689 429 snare 0;
#X obj 79 213 *~;
#X obj 188 313 *~;
#X obj 119 239 noise~;
#X obj 79 347 else/drive~;
#X obj 79 159 osc~ 300;
#X obj 166 193 else/decay~ 20;
#X obj 206 243 else/decay~ 40;
#X obj 79 391 outlet~;
#X obj 261 10 inlet;
#X obj 261 34 / 127;
#X obj 261 82 + 2;
#X msg 261 106 2 \$1;
#X obj 261 130 pow;
#X obj 310 194 * 2;
#X obj 206 144 inlet;
#X obj 261 154 t f f;
#X obj 82 92 +~ 62;
#X obj 82 116 mtof~;
#X obj 487 64 inlet;
#X obj 487 88 / 127;
#X obj 173 73 *~;
#X obj 261 58 * 5;
#X msg 487 136 2 \$1;
#X obj 487 160 pow;
#X obj 166 217 *~;
#X obj 487 112 * 4;
#X obj 119 283 hip~ 1000;
#X obj 206 168 v \$0-vel;
#X connect 0 0 3 0;
#X connect 1 0 3 0;
#X connect 2 0 26 0;
#X connect 3 0 7 0;
#X connect 4 0 0 0;
#X connect 5 0 0 1;
#X connect 5 0 24 0;
#X connect 5 0 24 1;
#X connect 6 0 1 1;
#X connect 8 0 9 0;
#X connect 9 0 21 0;
#X connect 10 0 11 0;
#X connect 11 0 12 0;
#X connect 12 0 15 0;
#X connect 13 0 6 1;
#X connect 14 0 27 0;
#X connect 15 0 5 1;
#X connect 15 1 13 0;
#X connect 16 0 17 0;
#X connect 17 0 4 0;
#X connect 18 0 19 0;
#X connect 19 0 25 0;
#X connect 20 0 16 0;
#X connect 21 0 10 0;
#X connect 22 0 23 0;
#X connect 23 0 20 1;
#X connect 24 0 20 0;
#X connect 25 0 22 0;
#X connect 26 0 1 0;
#X connect 27 0 5 0;
#X connect 27 0 6 0;
#X restore 183 531 pd snare;
#N canvas 369 134 842 507 hihat 0;
#X obj 504 239 noise~;
#X obj 282 391 *~;
#X obj 122 319 else/decay~;
#X obj 122 171 t b b;
#X obj 184 131 t b b;
#X obj 282 415 *~ 1;
#X obj 313 242 else/bl.square~ 842 0.47;
#X obj 293 212 else/bl.square~ 333 0.46;
#X obj 313 192 else/bl.square~ 512 0.48;
#X obj 293 340 else/highpass~ 8000 0.7;
#X obj 176 230 f;
#X obj 282 439 outlet~;
#X obj 231 201 f;
#X obj 631 59 inlet;
#X obj 631 83 / 127;
#X obj 631 131 + 100;
#X obj 631 155 mtof;
#X obj 123 124 inlet;
#X obj 183 104 inlet;
#X obj 425 -3 inlet;
#X obj 425 21 / 127;
#X msg 425 99 2 \$1;
#X obj 425 123 pow;
#X obj 455 147 * 4;
#X obj 293 300 else/drive~;
#X obj 293 276 /~ 3;
#X obj 631 107 * 30;
#X obj 425 69 + 2;
#X obj 425 45 * 5;
#X obj 122 295 v \$0-vel;
#X connect 0 0 25 0;
#X connect 1 0 5 0;
#X connect 2 0 1 0;
#X connect 3 0 29 0;
#X connect 3 1 10 0;
#X connect 4 0 29 0;
#X connect 4 1 12 0;
#X connect 5 0 11 0;
#X connect 6 0 25 0;
#X connect 7 0 25 0;
#X connect 8 0 25 0;
#X connect 9 0 1 1;
#X connect 10 0 2 1;
#X connect 12 0 2 1;
#X connect 13 0 14 0;
#X connect 14 0 26 0;
#X connect 15 0 16 0;
#X connect 16 0 9 1;
#X connect 17 0 3 0;
#X connect 18 0 4 0;
#X connect 19 0 20 0;
#X connect 20 0 28 0;
#X connect 21 0 22 0;
#X connect 22 0 23 0;
#X connect 22 0 10 1;
#X connect 23 0 12 1;
#X connect 24 0 9 0;
#X connect 25 0 24 0;
#X connect 26 0 15 0;
#X connect 27 0 21 0;
#X connect 28 0 27 0;
#X connect 29 0 2 0;
#X restore 263 531 pd hihat;
#X obj 509 340 symboltofloat;
#X obj 509 364 + 1;
#X obj 491 393 f;
#X msg 491 417 seed \$1;
#X obj 491 287 r \$0-reset;
#X obj 509 316 r \$1-titular-\$2;
#X obj 461 446 random 128;
#X obj 679 340 symboltofloat;
#X obj 661 393 f;
#X msg 661 417 seed \$1;
#X obj 661 287 r \$0-reset;
#X obj 679 316 r \$1-titular-\$2;
#X obj 631 446 random 128;
#X obj 341 665 outlet~;
#X obj 98 348 t b b;
#X obj 461 256 bang;
#X obj 631 256 bang;
#X obj 679 364 + 2;
#X obj 849 103 r \$1-usoAmparado-p-\$2;
#X obj 849 151 change;
#X obj 849 256 switch~ 64 1 1;
#X obj 849 175 sel 1 0;
#X obj 888 203 delay 1000;
#X msg 888 227 0;
#X msg 849 227 1;
#X obj 849 127 == 7;
#X obj 213 2 r \$1-usoAmparado-p-\$2;
#X obj 213 26 == 7;
#X obj 98 45 spigot;
#X obj 939 594 random 100;
#N canvas 369 134 842 507 fm 0;
#X obj 282 391 *~;
#X obj 122 319 else/decay~;
#X obj 122 171 t b b;
#X obj 176 230 f;
#X obj 282 439 outlet~;
#X obj 123 124 inlet;
#X obj 419 41 inlet;
#X obj 425 91 mtof;
#X obj 425 115 phasor~;
#X obj 425 219 cos~;
#X obj 515 91 mtof;
#X obj 515 115 phasor~;
#X obj 515 139 cos~;
#X obj 261 10 inlet;
#X obj 261 34 / 127;
#X obj 261 82 + 2;
#X msg 261 106 2 \$1;
#X obj 261 130 pow;
#X obj 502 52 + 3.4;
#X obj 122 295 v \$0-vel;
#X obj 261 58 * 7;
#X obj 282 415 *~ 0.3;
#X connect 0 0 21 0;
#X connect 1 0 0 0;
#X connect 2 0 19 0;
#X connect 2 1 3 0;
#X connect 3 0 1 1;
#X connect 5 0 2 0;
#X connect 6 0 7 0;
#X connect 6 0 18 0;
#X connect 7 0 8 0;
#X connect 8 0 9 0;
#X connect 9 0 0 1;
#X connect 10 0 11 0;
#X connect 11 0 12 0;
#X connect 12 0 9 0;
#X connect 13 0 14 0;
#X connect 14 0 20 0;
#X connect 15 0 16 0;
#X connect 16 0 17 0;
#X connect 17 0 3 1;
#X connect 18 0 10 0;
#X connect 19 0 1 0;
#X connect 20 0 15 0;
#X connect 21 0 4 0;
#X restore 373 531 pd fm;
#X obj 340 589 else/drive~;
#X obj 98 402 select 1 2 3 4 5;
#X obj 268 359 else/rand.i 1 5;
#X obj 939 618 < 10;
#X obj 852 370 symboltofloat;
#X obj 834 423 f;
#X msg 834 447 seed \$1;
#X obj 834 317 r \$0-reset;
#X obj 852 346 r \$1-titular-\$2;
#X obj 804 286 bang;
#X obj 852 394 + 3;
#X obj 804 500 * -1;
#X obj 804 524 + 100;
#X obj 804 548 dbtorms;
#X obj 804 572 s \$0-vel;
#X obj 824 602 v \$0-vel;
#X obj 98 259 else/chance 100;
#X obj 804 476 random 12;
#X obj 340 613 *~ 0.33;
#X obj 450 637 *~ 0.5;
#X obj 193 230 r \$1-prob-\$2-s;
#X text 443 181 Drum Machine;
#X connect 0 0 19 0;
#X connect 1 0 61 0;
#X connect 1 1 0 0;
#X connect 2 0 3 1;
#X connect 3 0 4 0;
#X connect 4 0 61 0;
#X connect 5 0 8 1;
#X connect 6 0 75 0;
#X connect 6 1 1 0;
#X connect 7 0 60 0;
#X connect 8 0 9 0;
#X connect 9 0 75 0;
#X connect 11 0 5 0;
#X connect 12 0 2 0;
#X connect 14 0 8 0;
#X connect 15 0 3 0;
#X connect 16 0 56 0;
#X connect 17 0 21 0;
#X connect 19 0 18 0;
#X connect 20 0 42 0;
#X connect 21 0 0 1;
#X connect 22 0 23 0;
#X connect 24 0 57 0;
#X connect 25 0 59 0;
#X connect 26 0 59 0;
#X connect 27 0 59 0;
#X connect 28 0 29 0;
#X connect 29 0 30 1;
#X connect 30 0 31 0;
#X connect 31 0 34 0;
#X connect 32 0 30 0;
#X connect 33 0 28 0;
#X connect 34 0 27 2;
#X connect 34 0 26 1;
#X connect 34 0 25 1;
#X connect 34 0 58 1;
#X connect 35 0 45 0;
#X connect 36 0 37 0;
#X connect 37 0 40 0;
#X connect 38 0 36 0;
#X connect 39 0 35 0;
#X connect 40 0 27 3;
#X connect 40 0 26 2;
#X connect 40 0 25 2;
#X connect 40 0 58 2;
#X connect 42 0 7 0;
#X connect 42 1 43 0;
#X connect 42 1 44 0;
#X connect 42 1 68 0;
#X connect 43 0 34 0;
#X connect 44 0 40 0;
#X connect 45 0 36 1;
#X connect 46 0 53 0;
#X connect 47 0 49 0;
#X connect 49 0 52 0;
#X connect 49 1 50 0;
#X connect 50 0 51 0;
#X connect 51 0 48 0;
#X connect 52 0 48 0;
#X connect 53 0 47 0;
#X connect 54 0 55 0;
#X connect 55 0 56 1;
#X connect 56 0 6 0;
#X connect 57 0 62 0;
#X connect 58 0 59 0;
#X connect 59 0 77 0;
#X connect 60 0 25 0;
#X connect 60 1 26 0;
#X connect 60 2 27 0;
#X connect 60 3 27 1;
#X connect 60 4 58 0;
#X connect 61 0 7 1;
#X connect 62 0 22 1;
#X connect 63 0 69 0;
#X connect 64 0 65 0;
#X connect 65 0 76 0;
#X connect 66 0 64 0;
#X connect 67 0 63 0;
#X connect 68 0 76 0;
#X connect 69 0 64 1;
#X connect 70 0 71 0;
#X connect 71 0 72 0;
#X connect 72 0 73 0;
#X connect 75 0 13 0;
#X connect 76 0 70 0;
#X connect 77 0 41 0;
#X connect 77 0 78 0;
#X connect 78 0 22 0;
#X connect 79 0 75 1;
