#N canvas 0 22 1280 756 12;
#X declare -path ../lib;
#X obj 300 152 %;
#X obj 268 94 t b f;
#X obj 318 282 symboltofloat;
#X obj 300 306 f;
#X msg 300 330 seed \$1;
#X obj 136 182 symboltofloat;
#X obj 98 75 t b f;
#X obj 98 358 f;
#X obj 118 206 f;
#X msg 118 230 seed \$1;
#X obj 98 416 mtof;
#X obj 207 35 declare -path ../lib;
#X obj 338 721 outlet~;
#X obj 136 158 r \$1-municipio-\$2;
#X obj 318 258 r \$1-acuifero-\$2;
#X obj 98 283 send \$0-trigger;
#X obj 118 129 r \$0-reset;
#X obj 300 229 r \$0-reset;
#X obj 98 51 r \$1-clock-\$2;
#X obj 318 99 r \$1-steps-\$2;
#X obj 300 200 s \$0-reset;
#X obj 300 176 sel 0;
#X obj 98 334 r \$0-trigger;
#X obj 98 382 quantizer \$1;
#X obj 318 123 / 4;
#X obj 98 524 vline~;
#X obj 98 548 *~;
#X obj 98 632 +~;
#X obj 48 676 delwrite~ \$0-karplus 100;
#X msg 344 412 1000 \$1;
#X obj 344 436 /;
#X obj 344 460 delread4~ \$0-karplus;
#X obj 342 560 lop~ 5000;
#X obj 339 622 hip~ 10;
#X msg 98 452 1000 \$1;
#X obj 98 476 /;
#X obj 545 349 t f b;
#X msg 572 370 0.001;
#X obj 572 391 log;
#X obj 545 412 *;
#X obj 545 460 exp;
#X obj 342 497 *~;
#X obj 98 259 else/chance 20;
#X obj 232 487 / 8;
#X obj 232 511 clip 0 40;
#X obj 52 720 r \$1-usoAmparado-p-\$2;
#X obj 52 768 change;
#X obj 52 744 == 9;
#X obj 52 792 switch~ 8 1 1;
#X msg 44 491 0 \, 1 \$1;
#X obj 44 515 vline~;
#X obj 44 539 -~ 0.25;
#X obj 44 563 cos~;
#X obj 1095 245 symboltofloat;
#X obj 1095 286 + 1;
#X obj 1014 305 f;
#X msg 1014 329 seed \$1;
#X obj 974 377 * -1;
#X msg 974 401 2 \$1;
#X obj 974 425 pow;
#X obj 772 263 t b b;
#X obj 772 444 *;
#X obj 1014 276 r \$0-reset;
#X obj 772 390 v \$1-ppq;
#X obj 1095 221 r \$1-titular-\$2;
#X obj 346 383 t f b;
#X obj 974 353 random 3;
#X obj 108 582 +~;
#X obj 108 606 *~;
#X obj 927 492 symboltofloat;
#X obj 846 502 f;
#X msg 846 526 seed \$1;
#X obj 846 473 r \$0-reset;
#X obj 927 468 r \$1-titular-\$2;
#X obj 806 574 * -1;
#X obj 806 598 + 100;
#X obj 806 622 dbtorms;
#X obj 751 507 r \$0-trigger;
#X obj 325 664 else/highpass~ 100 0.4;
#X obj 44 587 *~ 0.5;
#X msg 98 500 1 \, 0 0 \$1;
#X obj 629 522 symboltofloat;
#X obj 548 532 f;
#X msg 548 556 seed \$1;
#X obj 548 503 r \$0-reset;
#X obj 629 498 r \$1-titular-\$2;
#X obj 453 537 r \$0-trigger;
#X obj 629 546 + 2;
#X obj 508 604 mtof;
#X obj 1111 616 symboltofloat;
#X obj 1093 665 f;
#X msg 1093 689 seed \$1;
#X obj 1111 592 r \$1-municipio-\$2;
#X obj 1093 563 r \$0-reset;
#X obj 738 737 *~;
#X obj 738 796 outlet~;
#X obj 1073 534 r \$0-trigger;
#X obj 1073 718 random 2;
#X obj 1111 640 + 2;
#X obj 545 438 / 8000;
#X obj 268 359 else/rand.i 20 35;
#X obj 152 570 *~ 0.3;
#X obj 325 688 *~ 0.5;
#X obj 506 54 symboltofloat;
#X obj 488 103 f;
#X msg 488 127 seed \$1;
#X obj 469 -12 r \$0-reset;
#X obj 456 50 t b b;
#X obj 456 240 * 5;
#X obj 682 70 symboltofloat;
#X obj 664 119 f;
#X msg 664 143 seed \$1;
#X obj 632 66 t b b;
#X obj 469 12 t b b;
#X obj 496 305 +;
#X obj 456 264 t f f;
#X obj 506 30 r \$1-acuifero-\$2;
#X obj 682 46 r \$1-acuifero-\$2;
#X obj 506 78 + 1;
#X obj 682 94 + 2;
#X obj 632 172 else/rand.i 1 8;
#X obj 456 156 else/rand.i 2 8;
#X obj 466 187 r \$1-scaleLength;
#X obj 466 211 t b f;
#X obj 632 254 * 5;
#X obj 642 201 r \$1-scaleLength;
#X obj 642 225 t b f;
#X obj 169 529 noise~;
#X obj 806 550 random 12;
#X obj 772 414 * 8;
#X obj 508 580 else/rand.i 90 130;
#X obj 183 230 r \$1-prob-\$2-s;
#X text 846 107 Karplus;
#X connect 0 0 21 0;
#X connect 1 0 100 0;
#X connect 1 1 0 0;
#X connect 2 0 3 1;
#X connect 3 0 4 0;
#X connect 4 0 100 0;
#X connect 5 0 8 1;
#X connect 6 0 42 0;
#X connect 6 1 1 0;
#X connect 7 0 23 0;
#X connect 8 0 9 0;
#X connect 9 0 42 0;
#X connect 10 0 34 0;
#X connect 10 0 43 0;
#X connect 10 0 65 0;
#X connect 13 0 5 0;
#X connect 14 0 2 0;
#X connect 16 0 8 0;
#X connect 17 0 3 0;
#X connect 18 0 6 0;
#X connect 19 0 24 0;
#X connect 21 0 20 0;
#X connect 22 0 7 0;
#X connect 23 0 10 0;
#X connect 24 0 0 1;
#X connect 25 0 26 0;
#X connect 26 0 101 0;
#X connect 27 0 28 0;
#X connect 27 0 78 0;
#X connect 29 0 30 0;
#X connect 30 0 31 0;
#X connect 30 0 36 0;
#X connect 31 0 41 0;
#X connect 32 0 33 0;
#X connect 33 0 27 1;
#X connect 34 0 35 0;
#X connect 35 0 80 0;
#X connect 35 0 49 0;
#X connect 36 0 39 0;
#X connect 36 1 37 0;
#X connect 37 0 38 0;
#X connect 38 0 39 1;
#X connect 39 0 99 0;
#X connect 40 0 41 1;
#X connect 41 0 32 0;
#X connect 42 0 15 0;
#X connect 43 0 44 0;
#X connect 44 0 33 1;
#X connect 45 0 47 0;
#X connect 46 0 48 0;
#X connect 47 0 46 0;
#X connect 49 0 50 0;
#X connect 50 0 51 0;
#X connect 51 0 52 0;
#X connect 52 0 79 0;
#X connect 53 0 54 0;
#X connect 54 0 55 1;
#X connect 55 0 56 0;
#X connect 56 0 66 0;
#X connect 57 0 58 0;
#X connect 58 0 59 0;
#X connect 59 0 61 1;
#X connect 60 0 63 0;
#X connect 60 1 66 0;
#X connect 61 0 99 1;
#X connect 62 0 55 0;
#X connect 63 0 129 0;
#X connect 64 0 53 0;
#X connect 65 0 29 0;
#X connect 65 1 60 0;
#X connect 66 0 57 0;
#X connect 67 0 68 0;
#X connect 68 0 27 0;
#X connect 69 0 70 1;
#X connect 70 0 71 0;
#X connect 71 0 128 0;
#X connect 72 0 70 0;
#X connect 73 0 69 0;
#X connect 74 0 75 0;
#X connect 75 0 76 0;
#X connect 76 0 68 1;
#X connect 77 0 128 0;
#X connect 78 0 102 0;
#X connect 79 0 67 0;
#X connect 80 0 25 0;
#X connect 81 0 87 0;
#X connect 82 0 83 0;
#X connect 83 0 130 0;
#X connect 84 0 82 0;
#X connect 85 0 81 0;
#X connect 86 0 130 0;
#X connect 87 0 82 1;
#X connect 88 0 32 1;
#X connect 89 0 98 0;
#X connect 90 0 91 0;
#X connect 91 0 97 0;
#X connect 92 0 89 0;
#X connect 93 0 90 0;
#X connect 94 0 95 0;
#X connect 96 0 97 0;
#X connect 97 0 94 1;
#X connect 98 0 90 1;
#X connect 99 0 40 0;
#X connect 100 0 7 1;
#X connect 101 0 67 1;
#X connect 102 0 12 0;
#X connect 102 0 94 0;
#X connect 103 0 118 0;
#X connect 104 0 105 0;
#X connect 105 0 121 0;
#X connect 106 0 113 0;
#X connect 107 0 121 0;
#X connect 107 1 104 0;
#X connect 108 0 115 0;
#X connect 109 0 119 0;
#X connect 110 0 111 0;
#X connect 111 0 120 0;
#X connect 112 0 120 0;
#X connect 112 1 110 0;
#X connect 113 0 107 0;
#X connect 113 1 112 0;
#X connect 114 0 100 2;
#X connect 115 0 100 1;
#X connect 115 1 114 0;
#X connect 116 0 103 0;
#X connect 117 0 109 0;
#X connect 118 0 104 1;
#X connect 119 0 110 1;
#X connect 120 0 124 0;
#X connect 121 0 108 0;
#X connect 122 0 123 0;
#X connect 123 0 108 0;
#X connect 123 1 108 1;
#X connect 124 0 114 1;
#X connect 125 0 126 0;
#X connect 126 0 124 0;
#X connect 126 1 124 1;
#X connect 127 0 26 1;
#X connect 128 0 74 0;
#X connect 129 0 61 0;
#X connect 130 0 88 0;
#X connect 131 0 42 1;
