#N canvas 16 22 332 332 12;
#X obj 12 99 t f f;
#X obj 12 143 % 7;
#X obj 124 196 +;
#X obj 142 143 div 7;
#X obj 142 167 * 12;
#X obj 12 167 tabread \$1-scale;
#X obj 142 94 t f f;
#X obj 124 278 outlet;
#X obj 12 12 inlet;
#X obj 124 249 + 0;
#X obj 12 36 t f b;
#X obj 142 65 array size \$1-scale;
#X obj 142 225 r \$1-transpose-s;
#X connect 0 0 1 0;
#X connect 0 1 3 0;
#X connect 1 0 5 0;
#X connect 2 0 9 0;
#X connect 3 0 4 0;
#X connect 4 0 2 1;
#X connect 5 0 2 0;
#X connect 6 0 1 1;
#X connect 6 1 3 1;
#X connect 8 0 10 0;
#X connect 9 0 7 0;
#X connect 10 0 0 0;
#X connect 10 1 11 0;
#X connect 11 0 6 0;
#X connect 12 0 9 1;
