#N canvas 0 22 1280 756 12;
#X obj 65 100 i2agricola \$1 \$2;
#X obj 55 70 i1acuacultura \$1 \$2;
#X obj 75 130 i3agroindustrial \$1 \$2;
#X obj 85 160 i4diferentesUsos \$1 \$2;
#X obj 95 188 i5domestico \$1 \$2;
#X obj 105 218 i6energia \$1 \$2;
#X obj 115 248 i7industria \$1 \$2;
#X obj 135 308 i9pecuario \$1 \$2;
#X obj 145 338 i10servicios \$1 \$2;
#X obj 125 278 i8politico \$1 \$2;
#N canvas 0 22 1280 756 reverse 0;
#X obj 12 480 inlet~;
#X msg 138 534 \$1 1;
#X obj 138 558 line~;
#X obj 138 664 *~;
#X obj 12 712 outlet~;
#X obj 30 548 sig~ 1;
#X obj 30 577 -~;
#X obj 12 606 *~;
#X obj 12 683 +~;
#N canvas 5 24 1280 756 reverse 0;
#X obj 256 110 change -1;
#X obj 212 259 line~;
#X msg 212 235 0 \, 1 \$1;
#X obj 212 283 *~ 4000;
#X obj 288 254 * 2;
#X obj 256 86 div 4;
#X obj 256 182 * 4;
#X obj 256 62 r \$1-clock;
#X obj 12 119 inlet~;
#X obj 12 399 outlet~;
#X obj 256 134 bang;
#X obj 256 206 t f f;
#X msg 118 201 \$1 1;
#X obj 118 225 line~;
#X obj 30 264 loadbang;
#X msg 30 288 1;
#X obj 30 312 -~;
#X obj 12 341 *~;
#X obj 194 341 *~;
#X obj 12 370 +~;
#X obj 212 312 delread4~ \$0-buffer;
#X obj 256 158 v \$1-ppq;
#X obj 136 45 r \$1-reverse-\$2-s;
#X obj 118 148 random 100;
#X obj 118 99 bang;
#X obj 118 172 < 50;
#X obj 136 69 switch~;
#X connect 0 0 10 0;
#X connect 1 0 3 0;
#X connect 2 0 1 0;
#X connect 3 0 20 0;
#X connect 4 0 3 1;
#X connect 5 0 0 0;
#X connect 5 0 24 0;
#X connect 6 0 11 0;
#X connect 7 0 5 0;
#X connect 8 0 17 0;
#X connect 10 0 21 0;
#X connect 11 0 2 0;
#X connect 11 1 4 0;
#X connect 12 0 13 0;
#X connect 13 0 18 0;
#X connect 13 0 16 1;
#X connect 14 0 15 0;
#X connect 15 0 16 0;
#X connect 16 0 17 1;
#X connect 17 0 19 0;
#X connect 18 0 19 1;
#X connect 19 0 9 0;
#X connect 20 0 18 1;
#X connect 21 0 6 0;
#X connect 22 0 26 0;
#X connect 23 0 25 0;
#X connect 24 0 23 0;
#X connect 25 0 12 0;
#X restore 156 625 pd reverse;
#X obj 138 510 r \$1-reverse-\$2-s;
#X connect 0 0 7 0;
#X connect 0 0 9 0;
#X connect 1 0 2 0;
#X connect 2 0 6 1;
#X connect 2 0 3 0;
#X connect 3 0 8 1;
#X connect 5 0 6 0;
#X connect 6 0 7 1;
#X connect 7 0 8 0;
#X connect 8 0 4 0;
#X connect 9 0 3 1;
#X connect 10 0 1 0;
#X restore 71 559 pd reverse;
#N canvas 226 71 631 707 stutter 0;
#N canvas 0 22 1280 756 stutter 0;
#X obj 12 320 inlet~;
#X obj 310 26 div 4;
#X obj 310 50 change -1;
#X obj 310 74 bang;
#X obj 310 435 metro;
#X obj 310 98 random 100;
#X obj 416 494 i;
#X obj 466 494 + 1;
#X obj 434 303 random 16;
#X obj 434 327 t b f;
#X obj 434 375 *;
#X obj 310 156 t f f;
#X obj 371 175 select 1;
#X obj 371 199 t b b;
#X msg 371 272 2 \$1;
#X obj 371 296 pow;
#X obj 371 320 t b f;
#X obj 371 368 * 4;
#X obj 371 392 /;
#X obj 371 416 t f f;
#X obj 371 247 + 1;
#X obj 310 489 f;
#X msg 310 537 1 1 \, 0 1 \$1;
#X obj 310 561 vline~;
#X obj 398 585 *~;
#X obj 310 513 - 2;
#X obj 371 223 random 3;
#X msg 228 374 \$1 1;
#X obj 228 398 line~;
#X obj 228 604 *~;
#X obj 12 652 outlet~;
#X obj 30 388 sig~ 1;
#X obj 30 417 -~;
#X obj 12 446 *~;
#X obj 12 623 +~;
#X obj 416 548 delread4~ \$0-buffer;
#X obj 66 176 r \$1-stutter-\$2-s;
#X obj 310 2 r \$1-clock;
#X obj 434 351 v \$1-ppq;
#X obj 371 344 v \$1-ppq;
#X obj 310 132 < 50;
#X obj 66 200 switch~ 64 1 1;
#X connect 0 0 33 0;
#X connect 1 0 2 0;
#X connect 2 0 3 0;
#X connect 3 0 5 0;
#X connect 4 0 6 0;
#X connect 4 0 21 0;
#X connect 5 0 40 0;
#X connect 6 0 7 0;
#X connect 6 0 35 0;
#X connect 7 0 6 1;
#X connect 8 0 9 0;
#X connect 9 0 38 0;
#X connect 9 1 10 1;
#X connect 10 0 6 1;
#X connect 11 0 4 0;
#X connect 11 0 27 0;
#X connect 11 1 12 0;
#X connect 12 0 13 0;
#X connect 13 0 26 0;
#X connect 13 1 8 0;
#X connect 14 0 15 0;
#X connect 15 0 16 0;
#X connect 16 0 39 0;
#X connect 16 1 18 1;
#X connect 17 0 18 0;
#X connect 18 0 19 0;
#X connect 19 0 4 1;
#X connect 19 1 7 1;
#X connect 19 1 21 1;
#X connect 20 0 14 0;
#X connect 21 0 25 0;
#X connect 22 0 23 0;
#X connect 23 0 24 0;
#X connect 24 0 29 1;
#X connect 25 0 22 0;
#X connect 26 0 20 0;
#X connect 27 0 28 0;
#X connect 28 0 32 1;
#X connect 28 0 29 0;
#X connect 29 0 34 1;
#X connect 31 0 32 0;
#X connect 32 0 33 1;
#X connect 33 0 34 0;
#X connect 34 0 30 0;
#X connect 35 0 24 1;
#X connect 36 0 41 0;
#X connect 37 0 1 0;
#X connect 38 0 10 0;
#X connect 39 0 17 0;
#X connect 40 0 11 0;
#X restore 156 291 pd stutter;
#X obj 12 180 inlet~;
#X msg 138 234 \$1 1;
#X obj 138 258 line~;
#X obj 138 364 *~;
#X obj 12 412 outlet~;
#X obj 30 248 sig~ 1;
#X obj 30 277 -~;
#X obj 12 306 *~;
#X obj 12 383 +~;
#X obj 138 210 r \$1-stutter-\$2-s;
#X obj 95 162 delwrite~ \$0-buffer 2000;
#X connect 0 0 4 1;
#X connect 1 0 8 0;
#X connect 1 0 0 0;
#X connect 1 0 11 0;
#X connect 2 0 3 0;
#X connect 3 0 7 1;
#X connect 3 0 4 0;
#X connect 4 0 9 1;
#X connect 6 0 7 0;
#X connect 7 0 8 1;
#X connect 8 0 9 0;
#X connect 9 0 5 0;
#X connect 10 0 2 0;
#X restore 71 530 pd stutter;
#N canvas 0 22 1280 756 delay 0;
#X obj 37 187 inlet~;
#X obj 246 411 delwrite~ \$0-delay 2000;
#X obj 227 381 +~;
#X obj 354 30 r \$1-clock;
#X obj 354 54 bang;
#X obj 354 102 * 16;
#X obj 384 200 delread4~ \$0-delay;
#X obj 354 78 v \$1-ppq;
#X obj 384 156 / 8;
#X obj 366 322 lop~ 4000;
#X obj 366 346 hip~ 50;
#X obj 37 502 outlet~;
#X msg 143 304 \$1 1;
#X obj 143 328 line~;
#X obj 55 367 loadbang;
#X msg 55 391 1;
#X obj 55 415 -~;
#X obj 37 444 *~;
#X obj 209 444 *~;
#X obj 37 473 +~;
#X obj 143 279 / 127;
#X obj 143 255 r \$1-delay-\$2-s;
#X obj 434 103 r \$1-delayTime-\$2-s;
#X obj 434 127 t b f;
#X obj 354 126 change -1;
#X obj 384 224 clip~ -1 1;
#X msg 524 255 \$1 20;
#X obj 524 279 line~;
#X obj 366 298 *~;
#X obj 524 177 r \$1-delayFeedback-\$2-s;
#X obj 524 231 / 100;
#X connect 0 0 2 0;
#X connect 0 0 17 0;
#X connect 2 0 1 0;
#X connect 3 0 4 0;
#X connect 4 0 7 0;
#X connect 5 0 24 0;
#X connect 6 0 25 0;
#X connect 7 0 5 0;
#X connect 8 0 6 0;
#X connect 9 0 10 0;
#X connect 10 0 2 1;
#X connect 10 0 18 1;
#X connect 12 0 13 0;
#X connect 13 0 16 1;
#X connect 13 0 18 0;
#X connect 14 0 15 0;
#X connect 15 0 16 0;
#X connect 16 0 17 1;
#X connect 17 0 19 0;
#X connect 18 0 19 1;
#X connect 19 0 11 0;
#X connect 20 0 12 0;
#X connect 21 0 20 0;
#X connect 22 0 23 0;
#X connect 23 0 8 0;
#X connect 23 1 8 1;
#X connect 24 0 8 0;
#X connect 25 0 28 0;
#X connect 26 0 27 0;
#X connect 27 0 28 1;
#X connect 28 0 9 0;
#X connect 29 0 30 0;
#X connect 30 0 26 0;
#X restore 71 583 pd delay;
#X obj 71 612 outlet~;
#X obj 71 501 *~;
#X obj 317 386 r \$1-volume-\$2-s;
#X obj 317 410 / 100;
#X obj 317 434 pow 2;
#X msg 317 458 \$1 20;
#X obj 317 482 line~;
#X obj 299 149 *~;
#X obj 299 173 outlet~;
#X text 55 24 Este codigo activa y desactiva diferentes sintetizadores
y sonidos dependiendo del uso amparado;
#X text 300 194 Salida 2: al reverb;
#X text 78 634 Salida 1: al master;
#X text 150 561 <- Efectos;
#X connect 0 0 14 0;
#X connect 0 1 20 0;
#X connect 1 0 14 0;
#X connect 1 1 20 0;
#X connect 2 0 14 0;
#X connect 2 1 20 0;
#X connect 3 0 14 0;
#X connect 4 0 14 0;
#X connect 4 1 20 0;
#X connect 5 0 14 0;
#X connect 5 1 20 0;
#X connect 6 0 14 0;
#X connect 6 1 20 0;
#X connect 7 0 14 0;
#X connect 7 1 20 0;
#X connect 8 0 14 0;
#X connect 8 1 20 0;
#X connect 9 0 14 0;
#X connect 9 1 20 0;
#X connect 10 0 12 0;
#X connect 11 0 10 0;
#X connect 12 0 13 0;
#X connect 14 0 11 0;
#X connect 15 0 16 0;
#X connect 16 0 17 0;
#X connect 17 0 18 0;
#X connect 18 0 19 0;
#X connect 19 0 14 1;
#X connect 19 0 20 1;
#X connect 20 0 21 0;
