#N canvas 0 22 1280 756 12;
#X declare -path ./abs;
#X declare -path ./lib;
#N canvas 509 33 513 417 clock 0;
#X obj 33 222 metro;
#X obj 167 155 /;
#X obj 33 150 r \$0-play-s;
#X text 33 130 GUI: Play toggle;
#X obj 33 174 t f b;
#X obj 65 256 i;
#X obj 105 256 + 1;
#X obj 167 203 t f f;
#X obj 199 232 s \$0-ppq;
#X obj 209 256 v \$0-ppq;
#X msg 83 203 0;
#X obj 97 309 send \$0-bang;
#X obj 167 102 r \$0-bpm-s;
#X text 167 82 GUI: BPM;
#X msg 167 131 60000 \$1;
#X obj 65 280 t f b;
#X obj 65 338 send \$0-clock;
#X obj 167 179 / 4;
#X text 26 23 Aqui esta el reloj maestro que controla la velocidad
de la lectura de datos;
#X connect 0 0 5 0;
#X connect 1 0 17 0;
#X connect 2 0 4 0;
#X connect 4 0 0 0;
#X connect 4 1 10 0;
#X connect 5 0 6 0;
#X connect 5 0 15 0;
#X connect 6 0 5 1;
#X connect 7 0 0 1;
#X connect 7 1 8 0;
#X connect 10 0 5 1;
#X connect 12 0 14 0;
#X connect 14 0 1 0;
#X connect 15 0 16 0;
#X connect 15 1 11 0;
#X connect 17 0 7 0;
#X restore 583 504 pd clock;
#N canvas 22 154 1080 451 data 0;
#X floatatom 190 202 5 0 0 0 - - - 0;
#X floatatom 160 153 5 0 0 0 - - - 0;
#X obj 160 312 text get \$0-datos;
#X obj 160 283 +;
#X obj 190 254 t b f;
#X obj 30 312 text get \$0-datos;
#X text 159 130 column;
#X text 189 182 row;
#X obj 190 225 * 44;
#X text 39 158 44 columns;
#X text 39 178 9740 rows;
#X symbolatom 30 336 0 0 0 0 - - - 0;
#X obj 12 63 text define \$0-datos;
#X obj 12 15 loadbang;
#X msg 12 39 read -c UnionRegiosDOF.csv;
#X text 162 63 <- Aqui se guardan los datos;
#X symbolatom 160 336 20 0 0 0 - - - 0;
#X obj 12 93 clone -s 1 data 4 \$0;
#X obj 312 184 text define -k \$0-usoAmparado;
#A set ACUACULTURA \; AGRÍCOLA \; AGROINDUSTRIAL \; DIFERENTES USOS
\; DOMÉSTICO \; GENERACIÓN DE ENERGÍA ELÉCTRICA \; INDUSTRIAL \;
PÚBLICO URBANO \; PECUARIO \; SERVICIOS \;;
#X obj 332 214 text define -k \$0-usoAmparadoP;
#A set sineclicks \; sinewaves \; drummachine \; noise \; lpg \; saw
\; drummachine \; saw \; karplus \; clicks \;;
#X text 582 113 1 - Acuacultura (9 - 0.01%): sine clicks \; 2 - Agricola
(1 – 47%): small additive \; 3 - Agroindustrial (10 - 0.01%): drum
machine \; 4 - Diferentes usos (2 – 17%): noise \; 5 - Domestico
(4 – 10%): aditivia \; 6 - Generación de energia electrica (8 –
0.01%): unfiltered sawtooths \; 7 - Industria (5 – 7%): drum machine
\; 8 - Politico Urbano (7 – 3%): unfiltered sawtooths \; 9 - Pecuario
(3 – 11%): karplus \; 10 - Servicios (6 – 4%): clicks \;;
#X text 157 95 <- Aqui se leen los datos para cada cnal;
#X text 582 73 Uso amapardo \, numero \, porcentaje de probabilidad
y sonido al que esta relacionado.;
#X connect 0 0 8 0;
#X connect 1 0 5 0;
#X connect 1 0 3 0;
#X connect 2 0 16 0;
#X connect 3 0 2 0;
#X connect 4 0 3 0;
#X connect 4 1 3 1;
#X connect 5 0 11 0;
#X connect 8 0 4 0;
#X connect 13 0 14 0;
#X connect 14 0 12 0;
#X restore 583 528 pd data;
#X obj 103 733 drive~;
#X obj 103 757 hip~ 3;
#X obj 103 815 dac~ 1 2;
#X obj 103 495 catch~ \$0-out;
#X obj 26 402 array set \$0-scale;
#X obj 56 431 array define -k \$0-scale;
#A resize 5;
#A 0 0 2 5 7 9;
#X obj 217 83 tgl 19 0 \$0-play-s \$0-play-r PLAY 0 -8 0 12 #fcfcfc
#000000 #000000 0 1;
#N canvas 0 22 1280 756 display-info 0;
#X symbolatom 20 563 8 0 0 2 Fecha - - 0;
#X symbolatom 90 563 15 0 0 2 Uso\ Amparado - - 0;
#X symbolatom 320 563 35 0 0 2 Acuifero - - 0;
#X symbolatom 90 603 15 0 0 2 Uso - - 0;
#X symbolatom 220 603 40 0 0 2 Titular - - 0;
#X symbolatom 171 524 35 0 0 2 Municipio - - 0;
#X obj 20 523 nbx 5 19 -1e+37 1e+37 0 0 empty \$0-steps Steps 0 -8
0 12 #fcfcfc #000000 #000000 0 256;
#X obj 90 523 nbx 5 19 -1e+37 1e+37 0 0 empty lol Countdown 0 -8 0
12 #fcfcfc #000000 #000000 0 256;
#X obj 431 523 hradio 19 1 1 4 \$0-selectDisplay empty empty 0 -8 0
10 #fcfcfc #000000 #000000 0;
#X obj 954 371 text define -k \$0-dataReceive;
#A set steps \; countdown \; municipio \; fecha \; usoAmparado \; volumen
\; acuifero \; uso \; titular \;;
#X obj 115 351 route;
#X obj 147 292 r \$0-selectDisplay;
#X text 147 272 GUI: select display;
#X obj 115 385 route 1 2 3 4 5 6 7 8 9;
#X obj 147 316 + 1;
#X obj 443 458 list;
#X obj 383 458 list;
#X obj 323 458 list;
#X obj 273 458 list;
#X obj 223 458 list;
#X obj 171 458 list;
#X obj 115 167 clone -s 1 display 4 \$0;
#X floatatom 213 563 10 0 0 2 Volumen_en_m3 - - 0;
#X connect 10 0 13 0;
#X connect 11 0 14 0;
#X connect 13 0 6 0;
#X connect 13 1 7 0;
#X connect 13 2 20 0;
#X connect 13 3 19 0;
#X connect 13 4 18 0;
#X connect 13 5 22 0;
#X connect 13 6 17 0;
#X connect 13 7 16 0;
#X connect 13 8 15 0;
#X connect 14 0 10 1;
#X connect 15 0 4 0;
#X connect 16 0 3 0;
#X connect 17 0 2 0;
#X connect 18 0 1 0;
#X connect 19 0 0 0;
#X connect 20 0 5 0;
#X connect 21 0 10 0;
#X coords 0 -1 1 1 570 140 2 10 500;
#X restore 387 14 pd display-info;
#N canvas 830 295 450 300 cpu 0;
#X obj 99 150 cputime;
#X obj 99 30 loadbang;
#X obj 99 94 metro 1000;
#X obj 99 122 t b b;
#X obj 99 210 * 0.1;
#X obj 99 179 int;
#X text 76 279 CPU load in percent;
#X text 122 60 <= on/off;
#X obj 99 61 tgl 15 0 empty empty empty 17 7 0 10 #fcfcfc #000000 #000000
0 1;
#X obj 99 234 send \$0-cpu;
#X connect 0 0 5 0;
#X connect 1 0 8 0;
#X connect 2 0 3 0;
#X connect 3 0 0 0;
#X connect 3 1 0 1;
#X connect 4 0 9 0;
#X connect 5 0 4 0;
#X connect 8 0 2 0;
#X restore 653 504 pd cpu;
#X obj 217 33 nbx 3 19 -1e+37 1e+37 0 0 empty \$0-cpu CPU 0 -8 0 12
#fcfcfc #000000 #000000 0 256;
#X obj 257 83 nbx 3 19 30 1e+37 0 1 \$0-bpm-s \$0-bpm-r BPM 0 -8 0
12 #fcfcfc #000000 #000000 120 256;
#N canvas 61 115 450 300 declare 0;
#X obj 8 16 declare -path ./abs;
#X obj 8 46 declare -path ./lib;
#X obj 215 30 loadbang;
#X msg 215 54 dsp 1;
#X obj 215 78 s pd;
#X text 12 118 Aqui se declaran las carpetas con las abstracciones
necesarias para usar esta sonificacion.;
#X connect 2 0 3 0;
#X connect 3 0 4 0;
#X restore 583 480 pd declare;
#X obj 26 260 t l l;
#X obj 58 289 list length;
#X obj 26 112 loadbang;
#X obj 203 651 re.plate~;
#X obj 223 574 loadbang;
#X obj 223 622 unpack f f f;
#X obj 203 675 +~;
#X obj 357 223 tgl 19 0 \$0-track-1-s \$0-track-1-r TR1 0 -8 0 12 #fce0e0
#000000 #000000 0 1;
#X obj 357 263 tgl 19 0 \$0-track-2-s \$0-track-2-r TR2 0 -8 0 12 #fcfcc8
#000000 #000000 0 1;
#X obj 357 303 tgl 19 0 \$0-track-3-s \$0-track-3-r TR3 0 -8 0 12 #d8fcd8
#000000 #000000 0 1;
#X obj 357 343 tgl 19 0 \$0-track-4-s \$0-track-4-r TR4 0 -8 0 12 #f8d8fc
#000000 #000000 0 1;
#X obj 203 505 catch~ \$0-reverb;
#X obj 584 632 track \$0 1;
#X obj 674 632 track \$0 2;
#X obj 764 632 track \$0 3;
#X obj 854 632 track \$0 4;
#X obj 584 771 throw~ \$0-out;
#X msg 26 136 0 2 5 7 9;
#X obj 921 771 throw~ \$0-reverb;
#X obj 486 223 nbx 3 19 1 16 0 1 \$0-div-1-s \$0-div-1-r DIV 0 -8 0
12 #fce0e0 #000000 #000000 1 256;
#X obj 486 263 nbx 3 19 1 16 0 1 \$0-div-2-s \$0-div-2-r DIV 0 -8 0
12 #fcfcc8 #000000 #000000 1 256;
#X obj 486 303 nbx 3 19 1 16 0 1 \$0-div-3-s \$0-div-3-r DIV 0 -8 0
12 #d8fcd8 #000000 #000000 1 256;
#X obj 486 343 nbx 3 19 1 16 0 1 \$0-div-4-s \$0-div-4-r DIV 0 -8 0
12 #f8d8fc #000000 #000000 1 256;
#X obj 356 183 nbx 3 19 0 127 0 1 \$0-attack-1-s \$0-attack-1-r Attack
0 -8 0 12 #fcfcfc #000000 #000000 0 256;
#X obj 406 183 nbx 3 19 0 127 0 1 \$0-decay-1-s \$0-decay-1-r Decay
0 -8 0 12 #fcfcfc #000000 #000000 127 256;
#X obj 456 183 nbx 3 19 0 127 0 1 \$0-sustain-1-s \$0-sustain-1-r Sus
0 -8 0 12 #fcfcfc #000000 #000000 127 256;
#X obj 506 183 nbx 3 19 0 127 0 1 \$0-release-1-s \$0-release-1-r Rel
0 -8 0 12 #fcfcfc #000000 #000000 0 256;
#X obj 58 373 array size \$0-scale;
#X obj 78 323 send \$0-scaleLength;
#X msg 66 196 0 2 4 5 7 9 11;
#X msg 96 226 0 1 3 5 7 8 10;
#X symbolatom 252 224 14 0 0 0 - \$0-usoAmparadoP-1 - 0;
#X symbolatom 252 264 14 0 0 0 - \$0-usoAmparadoP-2 - 0;
#X symbolatom 252 304 14 0 0 0 - \$0-usoAmparadoP-3 - 0;
#X symbolatom 252 344 14 0 0 0 - \$0-usoAmparadoP-4 - 0;
#X obj 596 223 nbx 3 19 0 127 0 1 \$0-delay-1-s \$0-delay-1-r DELAY
0 -8 0 12 #fce0e0 #000000 #000000 0 256;
#X obj 537 223 tgl 19 1 \$0-stutter-1-s \$0-stutter-1-r STT 0 -8 0
12 #fce0e0 #000000 #000000 0 1;
#X obj 567 223 tgl 19 1 \$0-reverse-1-s \$0-reverse-1-r RVS 0 -8 0
12 #fce0e0 #000000 #000000 0 1;
#X obj 596 263 nbx 3 19 0 127 0 1 \$0-delay-2-s \$0-delay-2-r DELAY
0 -8 0 12 #fcfcc8 #000000 #000000 0 256;
#X obj 537 263 tgl 19 1 \$0-stutter-2-s \$0-stutter-2-r STT 0 -8 0
12 #fcfcc8 #000000 #000000 0 1;
#X obj 567 263 tgl 19 1 \$0-reverse-2-s \$0-reverse-2-r RVS 0 -8 0
12 #fcfcc8 #000000 #000000 0 1;
#X obj 596 303 nbx 3 19 0 127 0 1 \$0-delay-3-s \$0-delay-3-r DELAY
0 -8 0 12 #d8fcd8 #000000 #000000 0 256;
#X obj 537 303 tgl 19 1 \$0-stutter-3-s \$0-stutter-3-r STT 0 -8 0
12 #d8fcd8 #000000 #000000 0 1;
#X obj 567 303 tgl 19 1 \$0-reverse-3-s \$0-reverse-3-r RVS 0 -8 0
12 #d8fcd8 #000000 #000000 0 1;
#X obj 596 343 nbx 3 19 0 127 0 1 \$0-delay-4-s \$0-delay-4-r DELAY
0 -8 0 12 #f8d8fc #000000 #000000 0 256;
#X obj 537 343 tgl 19 1 \$0-stutter-4-s \$0-stutter-4-r STT 0 -8 0
12 #f8d8fc #000000 #000000 0 1;
#X obj 567 343 tgl 19 1 \$0-reverse-4-s \$0-reverse-4-r RVS 0 -8 0
12 #f8d8fc #000000 #000000 0 1;
#X obj 716 223 nbx 3 19 1 32 0 1 \$0-delayTime-1-s \$0-delayTime-1-r
Time 0 -8 0 12 #fce0e0 #000000 #000000 1 256;
#X obj 716 263 nbx 3 19 1 32 0 1 \$0-delayTime-2-s \$0-delayTime-2-r
Time 0 -8 0 12 #fcfcc8 #000000 #000000 1 256;
#X obj 716 303 nbx 3 19 1 32 0 1 \$0-delayTime-3-s \$0-delayTime-3-r
Time 0 -8 0 12 #d8fcd8 #000000 #000000 1 256;
#X obj 716 343 nbx 3 19 1 32 0 1 \$0-delayTime-4-s \$0-delayTime-4-r
Time 0 -8 0 12 #f8d8fc #000000 #000000 1 256;
#X obj 203 534 else/highpass~ 300 0.4;
#X obj 298 684 tgl 15 0 empty empty empty 17 7 0 10 #fcfcfc #000000
#000000 0 1;
#X obj 298 704 metro 100;
#X obj 298 728 tabwrite~ \$0-scope;
#N canvas 0 22 450 278 (subpatch) 0;
#X array \$0-scope 441 float 1;
#A 0 -0.050533 -0.0459833 -0.0447693 -0.0463464 -0.046759 -0.044836
-0.0384207 -0.028164 -0.0193237 -0.014778 -0.0145748 -0.0178959 -0.0190199
-0.0134281 -0.00338287 0.00810514 0.016699 0.0159026 0.00765147 -0.00335429
-0.0133944 -0.0172202 -0.0134758 -0.00793038 -0.00531813 -0.00859731
-0.020637 -0.0343563 -0.0430668 -0.0460753 -0.0429509 -0.036855 -0.03419
-0.0351222 -0.0378194 -0.0402098 -0.0391055 -0.035026 -0.0324695 -0.0311232
-0.0282227 -0.0225942 -0.0131409 -0.00585421 -0.00432676 -0.00780932
-0.0156026 -0.0212358 -0.0201028 -0.0149651 -0.00962037 -0.0074004
-0.0129239 -0.0235157 -0.0335487 -0.042179 -0.046311 -0.0449873 -0.0420095
-0.0390068 -0.0373362 -0.0409285 -0.0456258 -0.0482239 -0.0491632 -0.0460474
-0.0382007 -0.0298759 -0.0227384 -0.0173763 -0.015017 -0.0131046 -0.00959228
-0.00709515 -0.00449869 -4.57233e-05 0.00356692 0.00691028 0.00982803
0.00824327 0.00337001 -0.00257277 -0.0108424 -0.0171933 -0.0189239
-0.020826 -0.0210034 -0.0195792 -0.0225329 -0.0299537 -0.037158 -0.0408263
-0.0358128 -0.0263964 -0.0162511 -0.00699633 -0.00367846 -0.00317218
-0.000485913 0.00411994 0.012069 0.0233377 0.0316282 0.0357233 0.0378254
0.0390609 0.0419148 0.0462022 0.0458862 0.0408429 0.0341909 0.0281917
0.0273681 0.0321837 0.0355469 0.0339961 0.0271119 0.0152798 0.00543201
0.00358539 0.00746582 0.0150134 0.0224224 0.0229114 0.0176497 0.010819
0.00553659 0.00624698 0.0131573 0.0197276 0.0234778 0.0248084 0.0236178
0.0227453 0.023769 0.0252088 0.0266832 0.0280705 0.0273151 0.0259477
0.0269805 0.0277674 0.0289709 0.0268798 0.0216166 0.0156842 0.0102382
0.00970705 0.0153065 0.0201336 0.0209982 0.0184697 0.0117778 0.0057437
0.00479309 0.00785642 0.0148665 0.0236412 0.0287203 0.0287672 0.0258943
0.0221431 0.0219515 0.0272211 0.0335591 0.0394414 0.0439423 0.0449409
0.0438018 0.0442373 0.0453719 0.0473751 0.0492032 0.0474155 0.0446864
0.0444509 0.0445457 0.0452882 0.0449589 0.0403258 0.0344311 0.0323856
0.0322143 0.0344376 0.0385214 0.0408824 0.0401729 0.0366225 0.0324127
0.0321244 0.0331664 0.0354782 0.0400223 0.0426359 0.0443558 0.0462084
0.0463178 0.0461897 0.0467321 0.0475106 0.0501601 0.0560082 0.0604341
0.0622112 0.0618093 0.0582006 0.0536895 0.0500457 0.0467083 0.0444666
0.0439751 0.0409832 0.0360798 0.0301952 0.0227063 0.0165704 0.0133098
0.0104105 0.00854559 0.008633 0.00915461 0.0114769 0.0152847 0.0171808
0.0175929 0.01857 0.0202001 0.0242115 0.0314627 0.0394468 0.045859
0.0484932 0.0458644 0.0413659 0.0398446 0.0418653 0.0472269 0.0517206
0.0500041 0.0437048 0.0353729 0.0287479 0.0268409 0.0275534 0.0304823
0.0321907 0.0305624 0.0280591 0.0280849 0.0308397 0.0350869 0.0394933
0.0403609 0.0389647 0.0391304 0.0430033 0.0519062 0.0632252 0.0698957
0.0705219 0.0678491 0.0647973 0.0648479 0.070712 0.0793218 0.0852706
0.0841757 0.0738966 0.0598446 0.0494961 0.0467304 0.0509588 0.0578925
0.060409 0.0555186 0.0464175 0.0385657 0.0369822 0.0417842 0.0480785
0.0526045 0.0539033 0.0522035 0.0512488 0.0538349 0.060791 0.0680907
0.0721023 0.0717112 0.0691249 0.0670824 0.0688169 0.0741222 0.0786255
0.0775102 0.0699389 0.0594885 0.0515333 0.0503015 0.0551596 0.0607771
0.0618058 0.0567211 0.0488298 0.0439925 0.0449433 0.0501101 0.0557867
0.0575372 0.0558731 0.0538054 0.05382 0.0569604 0.0614443 0.0639873
0.0626299 0.0583002 0.0548175 0.0554931 0.05929 0.0635173 0.0650351
0.0622582 0.0568992 0.0519798 0.050142 0.0520996 0.0557966 0.0590373
0.0594308 0.0554895 0.0494123 0.0463795 0.0478955 0.0532688 0.0594831
0.063047 0.0617559 0.0578426 0.053417 0.0516284 0.0543041 0.0600761
0.0646731 0.0648552 0.060254 0.0551239 0.0533193 0.0554446 0.0593587
0.0609481 0.0564905 0.0479894 0.0416552 0.0418589 0.0475988 0.0531812
0.0538911 0.0496532 0.0425643 0.038412 0.04116 0.0488989 0.0568271
0.060804 0.0575511 0.0484295 0.0399094 0.0382759 0.0433481 0.0515734
0.0568528 0.0551816 0.0481896 0.0399101 0.0342991 0.0340621 0.0378652
0.0422433 0.0442234 0.0429613 0.0401579 0.0391105 0.0403962 0.0429346
0.0453279 0.044181 0.0409866 0.0386249 0.0392684 0.043102 0.0464301
0.0469459 0.044561 0.0390232 0.0315736 0.0267063 0.0253367 0.0255664
0.0261063 0.0254075 0.0217593 0.0164689 0.0111106 0.00599243 0.00473192
0.00709106 0.0111441 0.015519 0.0172531 0.0144376 0.0104931 0.0076586
0.00782927 0.0130543 0.0197252 0.024143 0.0255917 0.0234094 0.0200725
0.0202135 0.0238785 0.0286065 0.0326506 0.0330018 0.0297269 0.0277469
0.0286235 0.031045 0.0334387 0.0313 0.0232128 0.0148879 0.0108645 0.0128915
0.0197721 0.0253589 0.0246544 0.0177792 0.00971845 0.00889623;
#X coords 0 1 440 -1 200 140 1;
#X restore 977 32 graph;
#X obj 656 223 nbx 3 19 0 100 0 1 \$0-delayFeedback-1-s \$0-delayFeedback-1-r
Fdbk 0 -8 0 12 #fce0e0 #000000 #000000 68 256;
#X obj 656 263 nbx 3 19 0 100 0 1 \$0-delayFeedback-2-s \$0-delayFeedback-2-r
Fdbk 0 -8 0 12 #fcfcc8 #000000 #000000 97 256;
#X obj 656 303 nbx 3 19 0 100 0 1 \$0-delayFeedback-3-s \$0-delayFeedback-3-r
Fdbk 0 -8 0 12 #d8fcd8 #000000 #000000 50 256;
#X obj 656 343 nbx 3 19 0 100 0 1 \$0-delayFeedback-4-s \$0-delayFeedback-4-r
Fdbk 0 -8 0 12 #f8d8fc #000000 #000000 50 256;
#X obj 317 83 nbx 3 19 -48 48 0 1 \$0-transpose-s \$0-transpose-r Transpose
0 -8 0 12 #fcfcfc #000000 #000000 0 256;
#X obj 103 781 *~ 0.7;
#X obj 626 183 nbx 3 19 0 127 0 1 \$0-lpgRel-s \$0-lpgRel-r LpgRel
0 -8 0 12 #fcfcfc #000000 #000000 127 256;
#X obj 576 183 nbx 3 19 0 127 0 1 \$0-lpgAttack-s \$0-lpgAttack-r LpgAtt
0 -8 0 12 #fcfcfc #000000 #000000 1 256;
#X obj 357 383 tgl 19 0 \$0-chord-s \$0-chord-r CHORD 0 -8 0 12 #dce4fc
#000000 #000000 0 1;
#N canvas 0 22 1280 756 chord 0;
#X obj 148 -52 r \$0-clock;
#X obj 148 -8 spigot;
#X obj 232 -47 r \$0-chord-s;
#X obj 232 -17 r \$0-chordDiv-s;
#X obj 234 524 pack f f f;
#X obj 148 40 change -1;
#X obj 148 94 t b b;
#X obj 108 142 until;
#X obj 148 166 i;
#X obj 188 166 + 1;
#X msg 180 128 0;
#X obj 148 190 t b f;
#X obj 208 219 else/rand.i 1 5;
#X obj 208 243 +;
#X obj 248 243 i;
#X obj 208 281 +;
#X obj 372 251 else/rand.i 1 10;
#X obj 228 374 +;
#X obj 246 271 r \$0-scaleLength;
#X obj 694 135 r \$0-scaleLength;
#X obj 353 110 r \$0-scaleLength;
#X obj 148 16 div 4;
#X obj 353 374 r \$0-chordDiv-s;
#X obj 353 422 v \$0-ppq;
#X obj 353 446 *;
#X obj 353 398 t b f;
#X obj 234 476 makenote 127 1000;
#X obj 234 500 poly 10 1;
#X obj 234 548 clone -s 1 chord 10 \$0;
#X obj 234 705 outlet~;
#X obj 184 404 quantizer \$0;
#X obj 246 343 i;
#X obj 492 213 i;
#X obj 414 582 / 100;
#X obj 414 606 pow 2;
#X msg 414 630 \$1 20;
#X obj 414 654 line~;
#X obj 233 679 *~;
#X obj 549 707 outlet~;
#X obj 729 584 / 100;
#X obj 729 608 pow 2;
#X msg 729 632 \$1 20;
#X obj 729 656 line~;
#X obj 548 681 *~;
#X obj 729 560 r \$0-chordRvb-s;
#X obj 414 558 r \$0-chordVol-s;
#X obj 246 319 + 0.5;
#X msg 148 64 bang;
#X obj 234 596 hip~ 100;
#X msg 108 118 6;
#X obj 350 192 * 1;
#X obj 255 104 t b b;
#X obj 493 145 v \$0-scaleLength;
#X obj 492 189 * 1.5;
#X obj 353 154 / 1;
#X obj 234 620 lop~ 1000;
#X obj 246 295 * 1.5;
#X connect 0 0 1 0;
#X connect 1 0 21 0;
#X connect 2 0 1 1;
#X connect 3 0 21 1;
#X connect 4 0 28 0;
#X connect 5 0 47 0;
#X connect 6 0 49 0;
#X connect 6 1 10 0;
#X connect 6 1 51 0;
#X connect 7 0 8 0;
#X connect 8 0 9 0;
#X connect 8 0 11 0;
#X connect 9 0 8 1;
#X connect 10 0 8 1;
#X connect 10 0 14 0;
#X connect 11 0 12 0;
#X connect 12 0 13 0;
#X connect 13 0 14 0;
#X connect 13 0 15 0;
#X connect 14 0 13 1;
#X connect 15 0 17 0;
#X connect 16 0 15 1;
#X connect 17 0 30 0;
#X connect 18 0 56 0;
#X connect 19 0 53 0;
#X connect 20 0 54 0;
#X connect 21 0 5 0;
#X connect 22 0 25 0;
#X connect 23 0 24 0;
#X connect 24 0 26 2;
#X connect 25 0 23 0;
#X connect 25 1 24 1;
#X connect 26 0 27 0;
#X connect 26 1 27 1;
#X connect 27 0 4 0;
#X connect 27 1 4 1;
#X connect 27 2 4 2;
#X connect 28 0 48 0;
#X connect 30 0 26 0;
#X connect 31 0 17 1;
#X connect 32 0 16 2;
#X connect 33 0 34 0;
#X connect 34 0 35 0;
#X connect 35 0 36 0;
#X connect 36 0 37 1;
#X connect 37 0 29 0;
#X connect 39 0 40 0;
#X connect 40 0 41 0;
#X connect 41 0 42 0;
#X connect 42 0 43 1;
#X connect 43 0 38 0;
#X connect 44 0 39 0;
#X connect 45 0 33 0;
#X connect 46 0 31 0;
#X connect 47 0 6 0;
#X connect 48 0 55 0;
#X connect 49 0 7 0;
#X connect 50 0 12 2;
#X connect 51 0 16 0;
#X connect 51 1 52 0;
#X connect 52 0 53 0;
#X connect 52 0 54 0;
#X connect 52 0 56 0;
#X connect 53 0 32 0;
#X connect 54 0 50 0;
#X connect 55 0 37 0;
#X connect 55 0 43 0;
#X connect 56 0 46 0;
#X restore 723 740 pd chord;
#X obj 496 383 nbx 3 19 1 128 0 1 \$0-chordDiv-s \$0-chordDiv-r DIV
0 -8 0 12 #dce4fc #000000 #000000 64 256;
#X obj 396 383 nbx 3 19 0 100 0 1 \$0-chordVol-s \$0-chordVol-r Vol
0 -8 0 12 #dce4fc #000000 #000000 0 256;
#X obj 446 383 nbx 3 19 0 100 0 1 \$0-chordRvb-s \$0-chordRvb-r Rvb
0 -8 0 12 #dce4fc #000000 #000000 0 256;
#X obj 386 223 nbx 3 19 0 100 0 1 \$0-volume-1-s \$0-volume-1-r VOL
0 -8 0 12 #fce0e0 #000000 #000000 100 256;
#X obj 386 263 nbx 3 19 0 100 0 1 \$0-volume-2-s \$0-volume-2-r VOL
0 -8 0 12 #fcfcc8 #000000 #000000 100 256;
#X obj 386 303 nbx 3 19 0 100 0 1 \$0-volume-3-s \$0-volume-3-r VOL
0 -8 0 12 #d8fcd8 #000000 #000000 100 256;
#X obj 386 343 nbx 3 19 0 100 0 1 \$0-volume-4-s \$0-volume-4-r VOL
0 -8 0 12 #f8d8fc #000000 #000000 100 256;
#X obj 436 223 nbx 3 19 0 100 0 1 \$0-prob-1-s \$0-prob-1-r PROB 0
-8 0 12 #fce0e0 #000000 #000000 100 256;
#X obj 436 263 nbx 3 19 0 100 0 1 \$0-prob-2-s \$0-prob-2-r PROB 0
-8 0 12 #fcfcc8 #000000 #000000 100 256;
#X obj 436 303 nbx 3 19 0 100 0 1 \$0-prob-3-s \$0-prob-3-r PROB 0
-8 0 12 #d8fcd8 #000000 #000000 100 256;
#X obj 436 343 nbx 3 19 0 100 0 1 \$0-prob-4-s \$0-prob-4-r PROB 0
-8 0 12 #f8d8fc #000000 #000000 100 256;
#N canvas 320 372 636 300 gem 0;
#X obj 101 150 r \$0-gem-s;
#X obj 101 179 sel 0 1;
#X obj 101 241 gemwin;
#X msg 101 210 0 \, destroy;
#X msg 191 181 reset \, dimen 1280 720 \, create \, 1;
#X msg 191 152 reset \, dimen 640 360 \, create \, 1;
#X msg 188 102 offset 1280 66 \, border 0;
#X msg 161 65 reset \, offset 1280 0 \, border 0 \, dimen 1080 768
\, create \, 1;
#X msg 191 210 reset \, dimen 640 360 \, create \, 1;
#X text 12 21 Aqui es para crear los visuales en tiempo real con GEM
\, aunque lo mas probable es que cause problemas con el audio y el
consumo del CPU.;
#X connect 0 0 1 0;
#X connect 1 0 3 0;
#X connect 1 1 8 0;
#X connect 3 0 2 0;
#X connect 8 0 2 0;
#X restore 583 558 pd gem;
#X obj 217 123 tgl 19 0 \$0-gem-s \$0-gem-r GEM 0 -8 0 12 #fcfcfc #000000
#000000 0 1;
#X obj 583 582 clone -s 1 gemvisualization 4 \$0;
#X obj 594 666 env~;
#X obj 594 690 s \$0-env-1;
#X obj 684 666 env~;
#X obj 684 690 s \$0-env-2;
#X obj 794 666 env~;
#X obj 884 666 env~;
#X obj 794 690 s \$0-env-3;
#X obj 884 690 s \$0-env-4;
#X msg 46 166 0 2 3 5 7 8 10;
#X obj 596 383 nbx 3 19 0 100 0 1 \$0-chordDepth-s \$0-chordDepth-r
Depth 0 -8 0 12 #dce4fc #000000 #000000 0 256;
#X obj 546 383 nbx 3 19 0 64 0 1 \$0-chordRatio-s \$0-chordRatio-r
Ratio 0 -8 0 12 #dce4fc #000000 #000000 1 256;
#X msg 223 598 0.5 0.5 0.9;
#X obj 646 383 nbx 3 19 0 100 0 1 \$0-chordEnv-s \$0-chordEnv-r Env
0 -8 0 12 #dce4fc #000000 #000000 27 256;
#X obj 98 348 v \$0-scaleLength;
#X obj 296 183 nbx 3 19 0 200 0 1 \$0-master-s \$0-master-r Master
0 -8 0 12 #fcfcfc #000000 #000000 100 256;
#X obj 70 566 r \$0-master-s;
#X obj 70 590 / 100;
#X obj 70 638 line~;
#X obj 103 709 *~;
#X msg 70 614 \$1 1000;
#N canvas 0 22 1280 756 bass 0;
#X obj 148 -16 r \$0-clock;
#X obj 148 32 spigot;
#X obj 148 104 change -1;
#X obj 148 80 div 4;
#X obj 187 8 r \$0-bass-s;
#X obj 180 56 r \$0-bassDiv-s;
#X obj 148 133 t b f;
#X obj 321 202 %;
#X obj 339 173 r \$0-bassSteps-s;
#X obj 321 226 select 0;
#X obj 148 405 random;
#X obj 367 454 +;
#X obj 321 250 t b b;
#X obj 353 348 v \$0-scaleLength;
#X obj 353 372 t f f;
#X obj 367 478 quantizer \$0;
#X obj 279 313 symboltofloat;
#X obj 279 289 r \$0-titular-1;
#X obj 261 342 f;
#X msg 261 366 seed \$1;
#X obj 403 318 r \$0-scaleLength;
#X obj 385 425 i;
#X obj 385 401 * 2.5;
#X obj 572 315 r \$0-bassDiv-s;
#X obj 572 339 t b f;
#X obj 572 363 v \$0-ppq;
#X obj 586 387 *;
#X obj 367 517 makenote 127;
#X obj 367 541 poly 1 1;
#X obj 512 654 *~ 0.3;
#X obj 512 678 *~;
#X obj 595 587 / 100;
#X obj 595 611 pow 2;
#X obj 595 659 line~;
#X obj 512 702 outlet~;
#X obj 595 563 r \$0-bassVol-s;
#X obj 367 565 pack f f f;
#N canvas 0 22 450 435 bass 0;
#X obj 37 37 inlet;
#X obj 69 148 mtof;
#X obj 69 172 osc~;
#X obj 69 196 samphold~;
#X obj 69 294 *~;
#X obj 262 149 > 0;
#X obj 37 61 unpack f f;
#X obj 69 318 outlet~;
#X obj 339 154 inlet;
#X obj 262 275 *~;
#X obj 262 173 sel 1;
#X obj 262 197 f;
#X msg 262 221 1 10 \, 0 \$1 10;
#X obj 262 251 vline~;
#X obj 339 178 * 2;
#X obj 129 170 phasor~ 15000;
#X connect 0 0 6 0;
#X connect 1 0 2 0;
#X connect 2 0 3 0;
#X connect 3 0 4 0;
#X connect 4 0 7 0;
#X connect 5 0 10 0;
#X connect 6 0 1 0;
#X connect 6 1 5 0;
#X connect 8 0 14 0;
#X connect 9 0 4 1;
#X connect 10 0 11 0;
#X connect 11 0 12 0;
#X connect 12 0 13 0;
#X connect 13 0 9 0;
#X connect 13 0 9 1;
#X connect 14 0 11 1;
#X connect 15 0 3 1;
#X restore 512 615 pd bass;
#X obj 367 589 route 1;
#X obj 196 235 symboltofloat;
#X obj 178 264 f;
#X msg 178 288 seed \$1;
#X obj 196 211 r \$0-municipio-1;
#X obj 68 346 else/chance 80;
#X obj 142 317 r \$0-bassProb-s;
#X msg 595 635 \$1 100;
#X connect 0 0 1 0;
#X connect 1 0 3 0;
#X connect 2 0 6 0;
#X connect 3 0 2 0;
#X connect 4 0 1 1;
#X connect 5 0 3 1;
#X connect 6 0 43 0;
#X connect 6 1 7 0;
#X connect 7 0 9 0;
#X connect 8 0 7 1;
#X connect 9 0 12 0;
#X connect 10 0 11 0;
#X connect 11 0 15 0;
#X connect 12 0 18 0;
#X connect 12 0 40 0;
#X connect 12 1 13 0;
#X connect 13 0 14 0;
#X connect 14 0 10 1;
#X connect 14 1 22 0;
#X connect 15 0 27 0;
#X connect 16 0 18 1;
#X connect 17 0 16 0;
#X connect 18 0 19 0;
#X connect 19 0 10 0;
#X connect 20 0 14 0;
#X connect 21 0 11 1;
#X connect 22 0 21 0;
#X connect 23 0 24 0;
#X connect 24 0 25 0;
#X connect 24 1 26 1;
#X connect 25 0 26 0;
#X connect 26 0 27 2;
#X connect 26 0 37 1;
#X connect 27 0 28 0;
#X connect 27 1 28 1;
#X connect 28 0 36 0;
#X connect 28 1 36 1;
#X connect 28 2 36 2;
#X connect 29 0 30 0;
#X connect 30 0 34 0;
#X connect 31 0 32 0;
#X connect 32 0 45 0;
#X connect 33 0 30 1;
#X connect 35 0 31 0;
#X connect 36 0 38 0;
#X connect 37 0 29 0;
#X connect 38 0 37 0;
#X connect 39 0 40 1;
#X connect 40 0 41 0;
#X connect 41 0 43 0;
#X connect 42 0 39 0;
#X connect 43 0 10 0;
#X connect 44 0 43 1;
#X connect 45 0 33 0;
#X restore 503 708 pd bass;
#X obj 357 423 tgl 19 0 \$0-bass-s \$0-bass-r BASS 0 -8 0 12 #d8fcfc
#000000 #000000 0 1;
#X obj 506 423 nbx 3 19 1 128 0 1 \$0-bassDiv-s \$0-bassDiv-r DIV 0
-8 0 12 #d8fcfc #000000 #000000 16 256;
#X obj 396 423 nbx 3 19 0 100 0 1 \$0-bassVol-s \$0-bassVol-r Vol 0
-8 0 12 #d8fcfc #000000 #000000 75 256;
#X obj 556 423 nbx 3 19 1 128 0 1 \$0-bassSteps-s \$0-bassSteps-r Steps
0 -8 0 12 #d8fcfc #000000 #000000 16 256;
#X obj 446 423 nbx 3 19 0 100 0 1 \$0-bassProb-s \$0-bassProb-r PROB
0 -8 0 12 #d8fcfc #000000 #000000 100 256;
#X text 778 282 STT = Stutter FX;
#X text 778 302 RVS = Reverse FX;
#X text 778 342 Fdbk = Delay Feedback;
#X text 778 242 PROB = Probability;
#X text 778 262 DIV = Clock Division;
#X text 778 222 VOL = Volume;
#X text 778 362 Time = Delay Time;
#X text 778 322 Delay = Delay dry/wet;
#X text 778 202 TR = Track on/off;
#X text 27 87 Cambio de escala aqui;
#N canvas 425 154 838 624 gem-water 0;
#X obj 405 130 square 10;
#X obj 349 178 gemframebuffer;
#X obj 349 37 gemhead 1;
#X obj 584 201 gemhead 2;
#X obj 584 232 pix_texture;
#X obj 344 450 scopeXYZ~ 16384;
#X obj 528 176 env~;
#X obj 528 197 dbtorms;
#X obj 349 281 alpha 1;
#X obj 405 109 alpha 0;
#X obj 349 229 translateXYZ 0 0 -1.1;
#X obj 405 88 colorRGB 0 0.25 1 0.1;
#X obj 516 137 inlet~;
#X obj 201 287 loadbang;
#X msg 201 311 draw points;
#X obj 675 148 inlet~;
#X obj 583 146 inlet~;
#X msg 577 96 quality 0;
#X obj 585 49 loadbang;
#X obj 349 260 colorRGB 0 0.5 1 0.25;
#X obj 422 376 else/ffdelay~ 100;
#X obj 421 409 else/ffdelay~ 100;
#X obj 584 253 square 10;
#X obj 436 343 *~ 5;
#X obj 376 344 *~ 5;
#X obj 528 239 + 0;
#X obj 528 218 * 2;
#X connect 1 0 10 0;
#X connect 1 0 11 0;
#X connect 1 1 4 1;
#X connect 2 0 1 0;
#X connect 3 0 4 0;
#X connect 4 0 22 0;
#X connect 6 0 7 0;
#X connect 7 0 26 0;
#X connect 8 0 5 0;
#X connect 9 0 0 0;
#X connect 10 0 19 0;
#X connect 11 0 9 0;
#X connect 12 0 24 0;
#X connect 13 0 14 0;
#X connect 14 0 5 0;
#X connect 15 0 23 0;
#X connect 16 0 6 0;
#X connect 17 0 4 0;
#X connect 18 0 17 0;
#X connect 19 0 8 0;
#X connect 20 0 5 1;
#X connect 21 0 5 2;
#X connect 23 0 5 2;
#X connect 23 0 20 0;
#X connect 24 0 5 1;
#X connect 24 0 21 0;
#X connect 25 0 19 4;
#X connect 26 0 25 0;
#X restore 182 779 pd gem-water;
#X text 581 459 Esta seccion se encarga de leer los datos;
#X text 586 611 Codigo que se encarga de interpretar los datos a sonido:
;
#X text 778 182 Controles:;
#X connect 2 0 3 0;
#X connect 2 0 130 1;
#X connect 3 0 75 0;
#X connect 5 0 130 0;
#X connect 5 0 112 0;
#X connect 14 0 6 0;
#X connect 14 1 15 0;
#X connect 15 0 41 0;
#X connect 15 0 42 0;
#X connect 16 0 31 0;
#X connect 17 0 20 0;
#X connect 17 1 20 1;
#X connect 18 0 105 0;
#X connect 19 0 17 1;
#X connect 19 1 17 2;
#X connect 19 2 17 3;
#X connect 20 0 130 2;
#X connect 20 0 112 0;
#X connect 25 0 65 0;
#X connect 26 0 30 0;
#X connect 26 0 94 0;
#X connect 26 1 32 0;
#X connect 27 0 96 0;
#X connect 27 0 30 0;
#X connect 27 1 32 0;
#X connect 28 0 98 0;
#X connect 28 0 30 0;
#X connect 29 0 30 0;
#X connect 29 0 99 0;
#X connect 29 1 32 0;
#X connect 31 0 14 0;
#X connect 43 0 14 0;
#X connect 44 0 14 0;
#X connect 65 0 17 0;
#X connect 66 0 67 0;
#X connect 67 0 68 0;
#X connect 75 0 4 0;
#X connect 75 0 4 1;
#X connect 79 0 30 0;
#X connect 79 1 32 0;
#X connect 94 0 95 0;
#X connect 96 0 97 0;
#X connect 98 0 100 0;
#X connect 99 0 101 0;
#X connect 102 0 14 0;
#X connect 105 0 19 0;
#X connect 109 0 110 0;
#X connect 110 0 113 0;
#X connect 111 0 112 1;
#X connect 112 0 2 0;
#X connect 112 0 68 0;
#X connect 113 0 111 0;
#X connect 114 0 30 0;
